<svg width="190" height="56" viewBox="0 0 190 56" fill="none" xmlns="http://www.w3.org/2000/svg">
<g clip-path="url(#clip0_670_2842)">
<path d="M66.7886 14.3352C66.7886 15.5112 66.4386 16.4492 65.7386 17.1352C64.9546 17.9612 63.9186 18.3812 62.6586 18.3812C61.4406 18.3812 60.4186 17.9612 59.5646 17.1212C58.7106 16.2812 58.2906 15.2312 58.2906 13.9992C58.2906 12.7532 58.7106 11.7172 59.5646 10.8772C60.4186 10.0372 61.4406 9.61719 62.6586 9.61719C63.2606 9.61719 63.8346 9.72919 64.3806 9.96719C64.9266 10.2052 65.3606 10.5132 65.6966 10.9052L64.9546 11.6472C64.3946 10.9892 63.6386 10.6532 62.6586 10.6532C61.7766 10.6532 61.0066 10.9612 60.3626 11.5912C59.7186 12.2072 59.3966 13.0192 59.3966 14.0132C59.3966 15.0072 59.7186 15.8192 60.3626 16.4352C61.0066 17.0512 61.7766 17.3732 62.6586 17.3732C63.5966 17.3732 64.3806 17.0652 65.0106 16.4352C65.4166 16.0292 65.6546 15.4552 65.7106 14.7272H62.6586V13.7192H66.7326C66.7606 13.9292 66.7886 14.1392 66.7886 14.3352Z" fill="url(#paint0_linear_670_2842)"/>
<path d="M73.2414 10.8368H69.4194V13.4968H72.8634V14.5048H69.4194V17.1648H73.2414V18.2008H68.3414V9.80078H73.2414V10.8368Z" fill="url(#paint1_linear_670_2842)"/>
<path d="M77.7909 18.2008H76.7129V10.8368H74.3609V9.80078H80.1289V10.8368H77.7769V18.2008H77.7909Z" fill="url(#paint2_linear_670_2842)"/>
<path d="M84.3141 18.2008V9.80078H85.3921V18.2008H84.3141Z" fill="url(#paint3_linear_670_2842)"/>
<path d="M90.1816 18.2008H89.1036V10.8368H86.7516V9.80078H92.5196V10.8368H90.1676V18.2008H90.1816Z" fill="url(#paint4_linear_670_2842)"/>
<path d="M103.452 17.1072C102.626 17.9612 101.604 18.3812 100.372 18.3812C99.1402 18.3812 98.1181 17.9612 97.2921 17.1072C96.4661 16.2532 96.0602 15.2172 96.0602 13.9992C96.0602 12.7812 96.4661 11.7312 97.2921 10.8912C98.1181 10.0372 99.1402 9.61719 100.372 9.61719C101.59 9.61719 102.612 10.0372 103.452 10.8912C104.278 11.7452 104.698 12.7812 104.698 13.9992C104.684 15.2312 104.278 16.2672 103.452 17.1072ZM98.0901 16.4072C98.7061 17.0372 99.4762 17.3452 100.372 17.3452C101.268 17.3452 102.038 17.0372 102.654 16.4072C103.27 15.7772 103.592 14.9792 103.592 13.9992C103.592 13.0192 103.284 12.2212 102.654 11.5912C102.038 10.9612 101.268 10.6532 100.372 10.6532C99.4762 10.6532 98.7061 10.9612 98.0901 11.5912C97.4741 12.2212 97.1521 13.0192 97.1521 13.9992C97.1521 14.9792 97.4741 15.7772 98.0901 16.4072Z" fill="url(#paint5_linear_670_2842)"/>
<path d="M106.212 18.2008V9.80078H107.528L111.616 16.3388H111.658L111.616 14.7148V9.80078H112.694V18.2008H111.574L107.304 11.3548H107.262L107.304 12.9788V18.2008H106.212Z" fill="url(#paint6_linear_670_2842)"/>
<path d="M95.797 30.4511C92.507 30.4511 89.819 32.9571 89.819 36.4011C89.819 39.8311 92.507 42.3511 95.797 42.3511C99.087 42.3511 101.775 39.8311 101.775 36.4011C101.775 32.9571 99.087 30.4511 95.797 30.4511ZM95.797 40.0131C93.991 40.0131 92.437 38.5291 92.437 36.4011C92.437 34.2591 93.991 32.7891 95.797 32.7891C97.603 32.7891 99.157 34.2591 99.157 36.4011C99.157 38.5291 97.589 40.0131 95.797 40.0131ZM82.749 30.4511C79.459 30.4511 76.771 32.9571 76.771 36.4011C76.771 39.8311 79.459 42.3511 82.749 42.3511C86.039 42.3511 88.727 39.8311 88.727 36.4011C88.727 32.9571 86.039 30.4511 82.749 30.4511ZM82.749 40.0131C80.943 40.0131 79.389 38.5291 79.389 36.4011C79.389 34.2591 80.943 32.7891 82.749 32.7891C84.555 32.7891 86.109 34.2591 86.109 36.4011C86.109 38.5291 84.555 40.0131 82.749 40.0131ZM67.237 32.2851V34.8051H73.285C73.103 36.2191 72.627 37.2691 71.913 37.9831C71.031 38.8651 69.659 39.8311 67.251 39.8311C63.527 39.8311 60.615 36.8351 60.615 33.1111C60.615 29.3871 63.527 26.3911 67.251 26.3911C69.253 26.3911 70.723 27.1751 71.801 28.1971L73.579 26.4191C72.067 24.9771 70.065 23.8711 67.237 23.8711C62.141 23.8711 57.857 28.0151 57.857 33.1251C57.857 38.2211 62.141 42.3791 67.237 42.3791C69.995 42.3791 72.067 41.4831 73.691 39.7891C75.357 38.1231 75.875 35.7711 75.875 33.8811C75.875 33.2931 75.833 32.7471 75.735 32.2991H67.237V32.2851ZM130.671 34.2451C130.181 32.9151 128.669 30.4511 125.575 30.4511C122.509 30.4511 119.961 32.8591 119.961 36.4011C119.961 39.7331 122.481 42.3511 125.869 42.3511C128.599 42.3511 130.181 40.6851 130.825 39.7191L128.795 38.3611C128.123 39.3551 127.199 40.0131 125.869 40.0131C124.539 40.0131 123.587 39.3971 122.985 38.2071L130.951 34.9171L130.671 34.2451ZM122.551 36.2331C122.481 33.9371 124.329 32.7611 125.659 32.7611C126.695 32.7611 127.577 33.2791 127.871 34.0211L122.551 36.2331ZM116.083 42.0011H118.701V24.5011H116.083V42.0011ZM111.799 31.7811H111.701C111.113 31.0811 109.993 30.4511 108.565 30.4511C105.583 30.4511 102.853 33.0691 102.853 36.4291C102.853 39.7611 105.583 42.3651 108.565 42.3651C109.979 42.3651 111.113 41.7351 111.701 41.0071H111.785V41.8611C111.785 44.1431 110.567 45.3611 108.607 45.3611C107.011 45.3611 106.017 44.2131 105.611 43.2471L103.329 44.1991C103.987 45.7811 105.723 47.7131 108.607 47.7131C111.673 47.7131 114.263 45.9071 114.263 41.5111V30.8151H111.785V31.7811H111.799ZM108.789 40.0131C106.983 40.0131 105.471 38.5011 105.471 36.4291C105.471 34.3291 106.983 32.8031 108.789 32.8031C110.567 32.8031 111.967 34.3431 111.967 36.4291C111.981 38.5011 110.581 40.0131 108.789 40.0131ZM142.935 24.5011H136.677V42.0011H139.295V35.3651H142.949C145.847 35.3651 148.689 33.2651 148.689 29.9331C148.689 26.6011 145.819 24.5011 142.935 24.5011ZM142.991 32.9291H139.281V26.9231H142.991C144.951 26.9231 146.057 28.5471 146.057 29.9191C146.057 31.2911 144.951 32.9291 142.991 32.9291ZM159.147 30.4231C157.257 30.4231 155.297 31.2631 154.485 33.0971L156.809 34.0631C157.299 33.0971 158.223 32.7751 159.189 32.7751C160.533 32.7751 161.919 33.5871 161.933 35.0291V35.2111C161.457 34.9451 160.449 34.5391 159.203 34.5391C156.697 34.5391 154.163 35.9111 154.163 38.4731C154.163 40.8111 156.207 42.3231 158.503 42.3231C160.253 42.3231 161.233 41.5391 161.835 40.6151H161.919V41.9731H164.439V35.2671C164.453 32.1591 162.129 30.4231 159.147 30.4231ZM158.825 40.0131C157.971 40.0131 156.781 39.5791 156.781 38.5291C156.781 37.1851 158.265 36.6671 159.553 36.6671C160.701 36.6671 161.247 36.9191 161.933 37.2551C161.737 38.8651 160.337 40.0131 158.825 40.0131ZM173.637 30.8011L170.641 38.3891H170.557L167.449 30.8011H164.635L169.297 41.4131L166.637 47.3071H169.367L176.549 30.8011H173.637ZM150.117 42.0011H152.735V24.5011H150.117V42.0011Z" fill="url(#paint7_linear_670_2842)"/>
<path d="M15.0167 10.555C14.6107 10.989 14.3727 11.661 14.3727 12.515V43.483C14.3727 44.351 14.6107 45.023 15.0167 45.443L15.1147 45.541L32.4607 28.209V27.789L15.1147 10.457L15.0167 10.555Z" fill="url(#paint8_linear_670_2842)"/>
<path d="M38.8539 33.9918L33.0719 28.2098V27.7898L38.8539 22.0078L38.9799 22.0778L45.8259 25.9698C47.7859 27.0758 47.7859 28.8958 45.8259 30.0158L38.9799 33.9078L38.8539 33.9918Z" fill="url(#paint9_linear_670_2842)"/>
<path d="M38.3692 35.3084L32.4612 29.4004L15.0172 46.8444C15.6612 47.5304 16.7252 47.6144 17.9292 46.9284L38.3692 35.3084Z" fill="url(#paint10_linear_670_2842)"/>
<path d="M38.3676 20.6921L17.9136 9.07208C16.7096 8.38608 15.6456 8.47008 15.0016 9.15608L32.4596 26.6001L38.3676 20.6921Z" fill="url(#paint11_linear_670_2842)"/>
<path d="M182.4 1.12C185.648 1.12 188.28 3.752 188.28 7V49C188.28 52.248 185.648 54.88 182.4 54.88H7.39999C4.15199 54.88 1.51999 52.248 1.51999 49V7C1.51999 3.752 4.15199 1.12 7.39999 1.12H182.4ZM182.4 0H7.39999C3.54999 0 0.399994 3.15 0.399994 7V49C0.399994 52.85 3.54999 56 7.39999 56H182.4C186.25 56 189.4 52.85 189.4 49V7C189.4 3.15 186.25 0 182.4 0Z" fill="url(#paint12_linear_670_2842)"/>
</g>
<defs>
<linearGradient id="paint0_linear_670_2842" x1="58.2906" y1="6.68083" x2="105.519" y2="21.5743" gradientUnits="userSpaceOnUse">
<stop stop-color="white"/>
<stop offset="1" stop-color="#5394B8"/>
</linearGradient>
<linearGradient id="paint1_linear_670_2842" x1="68.3414" y1="6.98638" x2="97.2415" y2="12.4691" gradientUnits="userSpaceOnUse">
<stop stop-color="white"/>
<stop offset="1" stop-color="#5394B8"/>
</linearGradient>
<linearGradient id="paint2_linear_670_2842" x1="74.3609" y1="6.98638" x2="107.931" y2="14.4832" gradientUnits="userSpaceOnUse">
<stop stop-color="white"/>
<stop offset="1" stop-color="#5394B8"/>
</linearGradient>
<linearGradient id="paint3_linear_670_2842" x1="84.3141" y1="6.98638" x2="90.8895" y2="7.26082" gradientUnits="userSpaceOnUse">
<stop stop-color="white"/>
<stop offset="1" stop-color="#5394B8"/>
</linearGradient>
<linearGradient id="paint4_linear_670_2842" x1="86.7515" y1="6.98638" x2="120.321" y2="14.4832" gradientUnits="userSpaceOnUse">
<stop stop-color="white"/>
<stop offset="1" stop-color="#5394B8"/>
</linearGradient>
<linearGradient id="paint5_linear_670_2842" x1="96.0601" y1="6.68083" x2="143.923" y2="22.023" gradientUnits="userSpaceOnUse">
<stop stop-color="white"/>
<stop offset="1" stop-color="#5394B8"/>
</linearGradient>
<linearGradient id="paint6_linear_670_2842" x1="106.212" y1="6.98638" x2="143.472" y2="16.3373" gradientUnits="userSpaceOnUse">
<stop stop-color="white"/>
<stop offset="1" stop-color="#5394B8"/>
</linearGradient>
<linearGradient id="paint7_linear_670_2842" x1="57.8568" y1="15.8829" x2="258.126" y2="340.129" gradientUnits="userSpaceOnUse">
<stop stop-color="white"/>
<stop offset="1" stop-color="#5394B8"/>
</linearGradient>
<linearGradient id="paint8_linear_670_2842" x1="14.3726" y1="-1.29776" x2="121.873" y2="16.7271" gradientUnits="userSpaceOnUse">
<stop stop-color="white"/>
<stop offset="1" stop-color="#5394B8"/>
</linearGradient>
<linearGradient id="paint9_linear_670_2842" x1="33.0718" y1="17.9926" x2="108.713" y2="47.1911" gradientUnits="userSpaceOnUse">
<stop stop-color="white"/>
<stop offset="1" stop-color="#5394B8"/>
</linearGradient>
<linearGradient id="paint10_linear_670_2842" x1="15.0171" y1="23.3687" x2="136.146" y2="74.469" gradientUnits="userSpaceOnUse">
<stop stop-color="white"/>
<stop offset="1" stop-color="#5394B8"/>
</linearGradient>
<linearGradient id="paint11_linear_670_2842" x1="15.0015" y1="2.56599" x2="136.181" y2="53.7183" gradientUnits="userSpaceOnUse">
<stop stop-color="white"/>
<stop offset="1" stop-color="#5394B8"/>
</linearGradient>
<linearGradient id="paint12_linear_670_2842" x1="0.399708" y1="-18.7626" x2="524.187" y2="556.16" gradientUnits="userSpaceOnUse">
<stop stop-color="white"/>
<stop offset="1" stop-color="#5394B8"/>
</linearGradient>
<clipPath id="clip0_670_2842">
<rect width="189" height="56" fill="white" transform="translate(0.399994)"/>
</clipPath>
</defs>
</svg>
