<svg width="190" height="57" viewBox="0 0 190 57" fill="none" xmlns="http://www.w3.org/2000/svg">
<g clip-path="url(#clip0_670_3023)">
<path d="M66.7886 14.8547C66.7886 16.0307 66.4386 16.9687 65.7386 17.6547C64.9546 18.4807 63.9187 18.9007 62.6587 18.9007C61.4407 18.9007 60.4186 18.4807 59.5646 17.6407C58.7106 16.8007 58.2906 15.7507 58.2906 14.5187C58.2906 13.2727 58.7106 12.2367 59.5646 11.3967C60.4186 10.5567 61.4407 10.1367 62.6587 10.1367C63.2607 10.1367 63.8347 10.2487 64.3807 10.4867C64.9267 10.7247 65.3607 11.0327 65.6967 11.4247L64.9547 12.1667C64.3947 11.5087 63.6387 11.1727 62.6587 11.1727C61.7767 11.1727 61.0067 11.4807 60.3627 12.1107C59.7187 12.7267 59.3967 13.5387 59.3967 14.5327C59.3967 15.5267 59.7187 16.3387 60.3627 16.9547C61.0067 17.5707 61.7767 17.8927 62.6587 17.8927C63.5967 17.8927 64.3807 17.5847 65.0107 16.9547C65.4167 16.5487 65.6547 15.9747 65.7107 15.2467H62.6587V14.2387H66.7327C66.7607 14.4487 66.7886 14.6587 66.7886 14.8547Z" fill="url(#paint0_linear_670_3023)"/>
<path d="M73.2414 11.3563H69.4194V14.0163H72.8634V15.0243H69.4194V17.6843H73.2414V18.7203H68.3414V10.3203H73.2414V11.3563Z" fill="url(#paint1_linear_670_3023)"/>
<path d="M77.791 18.7203H76.713V11.3563H74.361V10.3203H80.129V11.3563H77.777V18.7203H77.791Z" fill="url(#paint2_linear_670_3023)"/>
<path d="M84.3141 18.7203V10.3203H85.3921V18.7203H84.3141Z" fill="url(#paint3_linear_670_3023)"/>
<path d="M90.1816 18.7203H89.1036V11.3563H86.7516V10.3203H92.5196V11.3563H90.1676V18.7203H90.1816Z" fill="url(#paint4_linear_670_3023)"/>
<path d="M103.452 17.6267C102.626 18.4807 101.604 18.9007 100.372 18.9007C99.1402 18.9007 98.1182 18.4807 97.2922 17.6267C96.4662 16.7727 96.0602 15.7367 96.0602 14.5187C96.0602 13.3007 96.4662 12.2507 97.2922 11.4107C98.1182 10.5567 99.1402 10.1367 100.372 10.1367C101.59 10.1367 102.612 10.5567 103.452 11.4107C104.278 12.2647 104.698 13.3007 104.698 14.5187C104.684 15.7507 104.278 16.7867 103.452 17.6267ZM98.0902 16.9267C98.7062 17.5567 99.4762 17.8647 100.372 17.8647C101.268 17.8647 102.038 17.5567 102.654 16.9267C103.27 16.2967 103.592 15.4987 103.592 14.5187C103.592 13.5387 103.284 12.7407 102.654 12.1107C102.038 11.4807 101.268 11.1727 100.372 11.1727C99.4762 11.1727 98.7062 11.4807 98.0902 12.1107C97.4742 12.7407 97.1522 13.5387 97.1522 14.5187C97.1522 15.4987 97.4742 16.2967 98.0902 16.9267Z" fill="url(#paint5_linear_670_3023)"/>
<path d="M106.213 18.7203V10.3203H107.529L111.617 16.8583H111.659L111.617 15.2343V10.3203H112.695V18.7203H111.575L107.305 11.8743H107.263L107.305 13.4983V18.7203H106.213Z" fill="url(#paint6_linear_670_3023)"/>
<path d="M95.7971 30.9687C92.5071 30.9687 89.8191 33.4747 89.8191 36.9187C89.8191 40.3487 92.5071 42.8687 95.7971 42.8687C99.0871 42.8687 101.775 40.3487 101.775 36.9187C101.775 33.4747 99.0871 30.9687 95.7971 30.9687ZM95.7971 40.5307C93.9911 40.5307 92.437 39.0467 92.437 36.9187C92.437 34.7767 93.9911 33.3067 95.7971 33.3067C97.6031 33.3067 99.1571 34.7767 99.1571 36.9187C99.1571 39.0467 97.5891 40.5307 95.7971 40.5307ZM82.7491 30.9687C79.4591 30.9687 76.7711 33.4747 76.7711 36.9187C76.7711 40.3487 79.4591 42.8687 82.7491 42.8687C86.0391 42.8687 88.7271 40.3487 88.7271 36.9187C88.7271 33.4747 86.0391 30.9687 82.7491 30.9687ZM82.7491 40.5307C80.9431 40.5307 79.3891 39.0467 79.3891 36.9187C79.3891 34.7767 80.9431 33.3067 82.7491 33.3067C84.5551 33.3067 86.1091 34.7767 86.1091 36.9187C86.1091 39.0467 84.5551 40.5307 82.7491 40.5307ZM67.2371 32.8027V35.3227H73.2851C73.1031 36.7367 72.6271 37.7867 71.9131 38.5007C71.0311 39.3827 69.6591 40.3487 67.2511 40.3487C63.5271 40.3487 60.6151 37.3527 60.6151 33.6287C60.6151 29.9047 63.5271 26.9087 67.2511 26.9087C69.2531 26.9087 70.7231 27.6927 71.8011 28.7147L73.5791 26.9367C72.0671 25.4947 70.0651 24.3887 67.2371 24.3887C62.1411 24.3887 57.8571 28.5327 57.8571 33.6427C57.8571 38.7387 62.1411 42.8967 67.2371 42.8967C69.9951 42.8967 72.0671 42.0007 73.6911 40.3067C75.3571 38.6407 75.8751 36.2887 75.8751 34.3987C75.8751 33.8107 75.8331 33.2647 75.7351 32.8167H67.2371V32.8027ZM130.671 34.7627C130.181 33.4327 128.669 30.9687 125.575 30.9687C122.509 30.9687 119.961 33.3767 119.961 36.9187C119.961 40.2507 122.481 42.8687 125.869 42.8687C128.599 42.8687 130.181 41.2027 130.825 40.2367L128.795 38.8787C128.123 39.8727 127.199 40.5307 125.869 40.5307C124.539 40.5307 123.587 39.9147 122.985 38.7247L130.951 35.4347L130.671 34.7627ZM122.551 36.7507C122.481 34.4547 124.329 33.2787 125.659 33.2787C126.695 33.2787 127.577 33.7967 127.871 34.5387L122.551 36.7507ZM116.083 42.5187H118.701V25.0187H116.083V42.5187ZM111.799 32.2987H111.701C111.113 31.5987 109.993 30.9687 108.565 30.9687C105.583 30.9687 102.853 33.5867 102.853 36.9467C102.853 40.2787 105.583 42.8827 108.565 42.8827C109.979 42.8827 111.113 42.2527 111.701 41.5247H111.785V42.3787C111.785 44.6607 110.567 45.8787 108.607 45.8787C107.011 45.8787 106.017 44.7307 105.611 43.7647L103.329 44.7167C103.987 46.2987 105.723 48.2307 108.607 48.2307C111.673 48.2307 114.263 46.4247 114.263 42.0287V31.3327H111.785V32.2987H111.799ZM108.789 40.5307C106.983 40.5307 105.471 39.0187 105.471 36.9467C105.471 34.8467 106.983 33.3207 108.789 33.3207C110.567 33.3207 111.967 34.8607 111.967 36.9467C111.981 39.0187 110.581 40.5307 108.789 40.5307ZM142.935 25.0187H136.677V42.5187H139.295V35.8827H142.949C145.847 35.8827 148.689 33.7827 148.689 30.4507C148.689 27.1187 145.819 25.0187 142.935 25.0187ZM142.991 33.4467H139.281V27.4407H142.991C144.951 27.4407 146.057 29.0647 146.057 30.4367C146.057 31.8087 144.951 33.4467 142.991 33.4467ZM159.147 30.9407C157.257 30.9407 155.297 31.7807 154.485 33.6147L156.809 34.5807C157.299 33.6147 158.223 33.2927 159.189 33.2927C160.533 33.2927 161.919 34.1047 161.933 35.5467V35.7287C161.457 35.4627 160.449 35.0567 159.203 35.0567C156.697 35.0567 154.163 36.4287 154.163 38.9907C154.163 41.3287 156.207 42.8407 158.503 42.8407C160.253 42.8407 161.233 42.0567 161.835 41.1327H161.919V42.4907H164.439V35.7847C164.453 32.6767 162.129 30.9407 159.147 30.9407ZM158.825 40.5307C157.971 40.5307 156.781 40.0967 156.781 39.0467C156.781 37.7027 158.265 37.1847 159.553 37.1847C160.701 37.1847 161.247 37.4367 161.933 37.7727C161.737 39.3827 160.337 40.5307 158.825 40.5307ZM173.637 31.3187L170.641 38.9067H170.557L167.449 31.3187H164.635L169.297 41.9307L166.637 47.8247H169.367L176.549 31.3187H173.637ZM150.117 42.5187H152.735V25.0187H150.117V42.5187Z" fill="url(#paint7_linear_670_3023)"/>
<path d="M15.0167 11.0746C14.6107 11.5086 14.3727 12.1806 14.3727 13.0346V44.0026C14.3727 44.8706 14.6107 45.5426 15.0167 45.9626L15.1147 46.0606L32.4607 28.7286V28.3086L15.1147 10.9766L15.0167 11.0746Z" fill="url(#paint8_linear_670_3023)"/>
<path d="M38.8539 34.5113L33.0719 28.7293V28.3093L38.8539 22.5273L38.9799 22.5973L45.8259 26.4893C47.7859 27.5953 47.7859 29.4153 45.8259 30.5353L38.9799 34.4273L38.8539 34.5113Z" fill="url(#paint9_linear_670_3023)"/>
<path d="M38.3692 35.8279L32.4612 29.9199L15.0172 47.3639C15.6612 48.0499 16.7252 48.1339 17.9292 47.4479L38.3692 35.8279Z" fill="url(#paint10_linear_670_3023)"/>
<path d="M38.3676 21.2116L17.9136 9.59161C16.7096 8.90561 15.6456 8.98961 15.0016 9.67561L32.4596 27.1196L38.3676 21.2116Z" fill="url(#paint11_linear_670_3023)"/>
<path d="M182.4 1.63953C185.648 1.63953 188.28 4.27153 188.28 7.51953V49.5195C188.28 52.7675 185.648 55.3995 182.4 55.3995H7.40002C4.15202 55.3995 1.52002 52.7675 1.52002 49.5195V7.51953C1.52002 4.27153 4.15202 1.63953 7.40002 1.63953H182.4ZM182.4 0.519531H7.40002C3.55002 0.519531 0.400024 3.66953 0.400024 7.51953V49.5195C0.400024 53.3695 3.55002 56.5195 7.40002 56.5195H182.4C186.25 56.5195 189.4 53.3695 189.4 49.5195V7.51953C189.4 3.66953 186.25 0.519531 182.4 0.519531Z" fill="url(#paint12_linear_670_3023)"/>
</g>
<defs>
<linearGradient id="paint0_linear_670_3023" x1="58.2906" y1="7.20037" x2="105.519" y2="22.0939" gradientUnits="userSpaceOnUse">
<stop stop-color="white"/>
<stop offset="1" stop-color="#5394B8"/>
</linearGradient>
<linearGradient id="paint1_linear_670_3023" x1="68.3414" y1="7.50592" x2="97.2415" y2="12.9886" gradientUnits="userSpaceOnUse">
<stop stop-color="white"/>
<stop offset="1" stop-color="#5394B8"/>
</linearGradient>
<linearGradient id="paint2_linear_670_3023" x1="74.361" y1="7.50592" x2="107.931" y2="15.0027" gradientUnits="userSpaceOnUse">
<stop stop-color="white"/>
<stop offset="1" stop-color="#5394B8"/>
</linearGradient>
<linearGradient id="paint3_linear_670_3023" x1="84.3141" y1="7.50592" x2="90.8895" y2="7.78035" gradientUnits="userSpaceOnUse">
<stop stop-color="white"/>
<stop offset="1" stop-color="#5394B8"/>
</linearGradient>
<linearGradient id="paint4_linear_670_3023" x1="86.7516" y1="7.50592" x2="120.321" y2="15.0027" gradientUnits="userSpaceOnUse">
<stop stop-color="white"/>
<stop offset="1" stop-color="#5394B8"/>
</linearGradient>
<linearGradient id="paint5_linear_670_3023" x1="96.0602" y1="7.20037" x2="143.923" y2="22.5425" gradientUnits="userSpaceOnUse">
<stop stop-color="white"/>
<stop offset="1" stop-color="#5394B8"/>
</linearGradient>
<linearGradient id="paint6_linear_670_3023" x1="106.213" y1="7.50592" x2="143.472" y2="16.8568" gradientUnits="userSpaceOnUse">
<stop stop-color="white"/>
<stop offset="1" stop-color="#5394B8"/>
</linearGradient>
<linearGradient id="paint7_linear_670_3023" x1="57.8569" y1="16.4005" x2="258.126" y2="340.646" gradientUnits="userSpaceOnUse">
<stop stop-color="white"/>
<stop offset="1" stop-color="#5394B8"/>
</linearGradient>
<linearGradient id="paint8_linear_670_3023" x1="14.3727" y1="-0.778232" x2="121.873" y2="17.2466" gradientUnits="userSpaceOnUse">
<stop stop-color="white"/>
<stop offset="1" stop-color="#5394B8"/>
</linearGradient>
<linearGradient id="paint9_linear_670_3023" x1="33.0719" y1="18.5121" x2="108.713" y2="47.7106" gradientUnits="userSpaceOnUse">
<stop stop-color="white"/>
<stop offset="1" stop-color="#5394B8"/>
</linearGradient>
<linearGradient id="paint10_linear_670_3023" x1="15.0172" y1="23.8883" x2="136.146" y2="74.9885" gradientUnits="userSpaceOnUse">
<stop stop-color="white"/>
<stop offset="1" stop-color="#5394B8"/>
</linearGradient>
<linearGradient id="paint11_linear_670_3023" x1="15.0016" y1="3.08553" x2="136.181" y2="54.2378" gradientUnits="userSpaceOnUse">
<stop stop-color="white"/>
<stop offset="1" stop-color="#5394B8"/>
</linearGradient>
<linearGradient id="paint12_linear_670_3023" x1="0.399738" y1="-18.2431" x2="524.187" y2="556.68" gradientUnits="userSpaceOnUse">
<stop stop-color="white"/>
<stop offset="1" stop-color="#5394B8"/>
</linearGradient>
<clipPath id="clip0_670_3023">
<rect width="189" height="56" fill="white" transform="translate(0.400024 0.519531)"/>
</clipPath>
</defs>
</svg>
