<svg width="190" height="56" viewBox="0 0 190 56" fill="none" xmlns="http://www.w3.org/2000/svg">
<g clip-path="url(#clip0_670_2956)">
<path d="M66.7886 14.3352C66.7886 15.5112 66.4386 16.4492 65.7386 17.1352C64.9546 17.9612 63.9187 18.3812 62.6587 18.3812C61.4407 18.3812 60.4186 17.9612 59.5646 17.1212C58.7106 16.2812 58.2906 15.2312 58.2906 13.9992C58.2906 12.7532 58.7106 11.7172 59.5646 10.8772C60.4186 10.0372 61.4407 9.61719 62.6587 9.61719C63.2607 9.61719 63.8347 9.72919 64.3807 9.96719C64.9267 10.2052 65.3607 10.5132 65.6967 10.9052L64.9547 11.6472C64.3947 10.9892 63.6387 10.6532 62.6587 10.6532C61.7767 10.6532 61.0067 10.9612 60.3627 11.5912C59.7187 12.2072 59.3967 13.0192 59.3967 14.0132C59.3967 15.0072 59.7187 15.8192 60.3627 16.4352C61.0067 17.0512 61.7767 17.3732 62.6587 17.3732C63.5967 17.3732 64.3807 17.0652 65.0107 16.4352C65.4167 16.0292 65.6547 15.4552 65.7107 14.7272H62.6587V13.7192H66.7327C66.7607 13.9292 66.7886 14.1392 66.7886 14.3352Z" fill="#3AAFFF"/>
<path d="M73.2414 10.8368H69.4194V13.4968H72.8634V14.5048H69.4194V17.1648H73.2414V18.2008H68.3414V9.80078H73.2414V10.8368Z" fill="#3AAFFF"/>
<path d="M77.791 18.2008H76.713V10.8368H74.361V9.80078H80.129V10.8368H77.777V18.2008H77.791Z" fill="#3AAFFF"/>
<path d="M84.3141 18.2008V9.80078H85.3921V18.2008H84.3141Z" fill="#3AAFFF"/>
<path d="M90.1816 18.2008H89.1036V10.8368H86.7516V9.80078H92.5196V10.8368H90.1676V18.2008H90.1816Z" fill="#3AAFFF"/>
<path d="M103.452 17.1072C102.626 17.9612 101.604 18.3812 100.372 18.3812C99.1402 18.3812 98.1182 17.9612 97.2922 17.1072C96.4662 16.2532 96.0602 15.2172 96.0602 13.9992C96.0602 12.7812 96.4662 11.7312 97.2922 10.8912C98.1182 10.0372 99.1402 9.61719 100.372 9.61719C101.59 9.61719 102.612 10.0372 103.452 10.8912C104.278 11.7452 104.698 12.7812 104.698 13.9992C104.684 15.2312 104.278 16.2672 103.452 17.1072ZM98.0902 16.4072C98.7062 17.0372 99.4762 17.3452 100.372 17.3452C101.268 17.3452 102.038 17.0372 102.654 16.4072C103.27 15.7772 103.592 14.9792 103.592 13.9992C103.592 13.0192 103.284 12.2212 102.654 11.5912C102.038 10.9612 101.268 10.6532 100.372 10.6532C99.4762 10.6532 98.7062 10.9612 98.0902 11.5912C97.4742 12.2212 97.1522 13.0192 97.1522 13.9992C97.1522 14.9792 97.4742 15.7772 98.0902 16.4072Z" fill="#3AAFFF"/>
<path d="M106.213 18.2008V9.80078H107.529L111.617 16.3388H111.659L111.617 14.7148V9.80078H112.695V18.2008H111.575L107.305 11.3548H107.263L107.305 12.9788V18.2008H106.213Z" fill="#3AAFFF"/>
<path d="M95.7971 30.4491C92.5071 30.4491 89.8191 32.9551 89.8191 36.3991C89.8191 39.8291 92.5071 42.3491 95.7971 42.3491C99.0871 42.3491 101.775 39.8291 101.775 36.3991C101.775 32.9551 99.0871 30.4491 95.7971 30.4491ZM95.7971 40.0111C93.9911 40.0111 92.437 38.5271 92.437 36.3991C92.437 34.2571 93.9911 32.7871 95.7971 32.7871C97.6031 32.7871 99.1571 34.2571 99.1571 36.3991C99.1571 38.5271 97.5891 40.0111 95.7971 40.0111ZM82.7491 30.4491C79.4591 30.4491 76.7711 32.9551 76.7711 36.3991C76.7711 39.8291 79.4591 42.3491 82.7491 42.3491C86.0391 42.3491 88.7271 39.8291 88.7271 36.3991C88.7271 32.9551 86.0391 30.4491 82.7491 30.4491ZM82.7491 40.0111C80.9431 40.0111 79.3891 38.5271 79.3891 36.3991C79.3891 34.2571 80.9431 32.7871 82.7491 32.7871C84.5551 32.7871 86.1091 34.2571 86.1091 36.3991C86.1091 38.5271 84.5551 40.0111 82.7491 40.0111ZM67.2371 32.2831V34.8031H73.2851C73.1031 36.2171 72.6271 37.2671 71.9131 37.9811C71.0311 38.8631 69.6591 39.8291 67.2511 39.8291C63.5271 39.8291 60.6151 36.8331 60.6151 33.1091C60.6151 29.3851 63.5271 26.3891 67.2511 26.3891C69.2531 26.3891 70.7231 27.1731 71.8011 28.1951L73.5791 26.4171C72.0671 24.9751 70.0651 23.8691 67.2371 23.8691C62.1411 23.8691 57.8571 28.0131 57.8571 33.1231C57.8571 38.2191 62.1411 42.3771 67.2371 42.3771C69.9951 42.3771 72.0671 41.4811 73.6911 39.7871C75.3571 38.1211 75.8751 35.7691 75.8751 33.8791C75.8751 33.2911 75.8331 32.7451 75.7351 32.2971H67.2371V32.2831ZM130.671 34.2431C130.181 32.9131 128.669 30.4491 125.575 30.4491C122.509 30.4491 119.961 32.8571 119.961 36.3991C119.961 39.7311 122.481 42.3491 125.869 42.3491C128.599 42.3491 130.181 40.6831 130.825 39.7171L128.795 38.3591C128.123 39.3531 127.199 40.0111 125.869 40.0111C124.539 40.0111 123.587 39.3951 122.985 38.2051L130.951 34.9151L130.671 34.2431ZM122.551 36.2311C122.481 33.9351 124.329 32.7591 125.659 32.7591C126.695 32.7591 127.577 33.2771 127.871 34.0191L122.551 36.2311ZM116.083 41.9991H118.701V24.4991H116.083V41.9991ZM111.799 31.7791H111.701C111.113 31.0791 109.993 30.4491 108.565 30.4491C105.583 30.4491 102.853 33.0671 102.853 36.4271C102.853 39.7591 105.583 42.3631 108.565 42.3631C109.979 42.3631 111.113 41.7331 111.701 41.0051H111.785V41.8591C111.785 44.1411 110.567 45.3591 108.607 45.3591C107.011 45.3591 106.017 44.2111 105.611 43.2451L103.329 44.1971C103.987 45.7791 105.723 47.7111 108.607 47.7111C111.673 47.7111 114.263 45.9051 114.263 41.5091V30.8131H111.785V31.7791H111.799ZM108.789 40.0111C106.983 40.0111 105.471 38.4991 105.471 36.4271C105.471 34.3271 106.983 32.8011 108.789 32.8011C110.567 32.8011 111.967 34.3411 111.967 36.4271C111.981 38.4991 110.581 40.0111 108.789 40.0111ZM142.935 24.4991H136.677V41.9991H139.295V35.3631H142.949C145.847 35.3631 148.689 33.2631 148.689 29.9311C148.689 26.5991 145.819 24.4991 142.935 24.4991ZM142.991 32.9271H139.281V26.9211H142.991C144.951 26.9211 146.057 28.5451 146.057 29.9171C146.057 31.2891 144.951 32.9271 142.991 32.9271ZM159.147 30.4211C157.257 30.4211 155.297 31.2611 154.485 33.0951L156.809 34.0611C157.299 33.0951 158.223 32.7731 159.189 32.7731C160.533 32.7731 161.919 33.5851 161.933 35.0271V35.2091C161.457 34.9431 160.449 34.5371 159.203 34.5371C156.697 34.5371 154.163 35.9091 154.163 38.4711C154.163 40.8091 156.207 42.3211 158.503 42.3211C160.253 42.3211 161.233 41.5371 161.835 40.6131H161.919V41.9711H164.439V35.2651C164.453 32.1571 162.129 30.4211 159.147 30.4211ZM158.825 40.0111C157.971 40.0111 156.781 39.5771 156.781 38.5271C156.781 37.1831 158.265 36.6651 159.553 36.6651C160.701 36.6651 161.247 36.9171 161.933 37.2531C161.737 38.8631 160.337 40.0111 158.825 40.0111ZM173.637 30.7991L170.641 38.3871H170.557L167.449 30.7991H164.635L169.297 41.4111L166.637 47.3051H169.367L176.549 30.7991H173.637ZM150.117 41.9991H152.735V24.4991H150.117V41.9991Z" fill="#3AAFFF"/>
<path d="M15.0167 10.555C14.6107 10.989 14.3727 11.661 14.3727 12.515V43.483C14.3727 44.351 14.6107 45.023 15.0167 45.443L15.1147 45.541L32.4607 28.209V27.789L15.1147 10.457L15.0167 10.555Z" fill="#3AAFFF"/>
<path d="M38.8539 33.9918L33.0719 28.2098V27.7898L38.8539 22.0078L38.9799 22.0778L45.8259 25.9698C47.7859 27.0758 47.7859 28.8958 45.8259 30.0158L38.9799 33.9078L38.8539 33.9918Z" fill="#3AAFFF"/>
<path d="M38.3692 35.3084L32.4612 29.4004L15.0172 46.8444C15.6612 47.5304 16.7252 47.6144 17.9292 46.9284L38.3692 35.3084Z" fill="#3AAFFF"/>
<path d="M38.3676 20.6921L17.9136 9.07208C16.7096 8.38608 15.6456 8.47008 15.0016 9.15608L32.4596 26.6001L38.3676 20.6921Z" fill="#3AAFFF"/>
<path d="M182.4 1.12C185.648 1.12 188.28 3.752 188.28 7V49C188.28 52.248 185.648 54.88 182.4 54.88H7.40002C4.15202 54.88 1.52002 52.248 1.52002 49V7C1.52002 3.752 4.15202 1.12 7.40002 1.12H182.4ZM182.4 0H7.40002C3.55002 0 0.400024 3.15 0.400024 7V49C0.400024 52.85 3.55002 56 7.40002 56H182.4C186.25 56 189.4 52.85 189.4 49V7C189.4 3.15 186.25 0 182.4 0Z" fill="#3AAFFF"/>
</g>
<defs>
<clipPath id="clip0_670_2956">
<rect width="189" height="56" fill="white" transform="translate(0.400024)"/>
</clipPath>
</defs>
</svg>
