<svg width="170" height="57" viewBox="0 0 170 57" fill="none" xmlns="http://www.w3.org/2000/svg">
<g clip-path="url(#clip0_670_2995)">
<path d="M162.259 2.58046C163.043 2.58591 163.829 2.75358 164.468 3.20718C165.556 3.97936 166.447 5.00438 167.063 6.20094C167.452 6.97616 167.722 7.80614 167.862 8.66246L167.864 8.6654C168.013 9.55654 168.097 10.4576 168.113 11.3612C168.118 11.7851 168.118 12.2112 168.118 12.6411V12.6562C168.13 13.1546 168.13 13.6557 168.13 14.1697V43.4697C168.13 43.9879 168.13 44.4863 168.118 44.9861V45.0011C168.118 45.4362 168.118 45.8528 168.113 46.2822C168.097 47.1858 168.013 48.087 167.864 48.9781L167.862 48.9814C167.722 49.8378 167.453 50.6679 167.063 51.443C166.667 52.2122 166.153 52.9143 165.54 53.5237L165.535 53.5278C164.926 54.1418 164.224 54.6542 163.454 55.0458C162.674 55.4391 161.841 55.7146 160.981 55.8635C160.091 56.0105 159.191 56.0901 158.288 56.1013L158.281 56.1015C157.859 56.1109 157.427 56.1162 157.007 56.1162H157.002C156.501 56.119 155.992 56.119 155.489 56.119H14.6485C14.1349 56.119 13.6295 56.119 13.1198 56.1162H13.1159C12.6933 56.1162 12.2733 56.1109 11.8448 56.1014H11.8386C10.9346 56.0895 10.0327 56.01 9.14053 55.8635C8.2841 55.716 7.45467 55.4406 6.67999 55.0466C5.908 54.6552 5.20307 54.1422 4.59367 53.5276L4.58821 53.5222C3.97375 52.916 3.46156 52.2142 3.07156 51.4442C2.67795 50.669 2.40494 49.8375 2.26265 48.9799L2.26239 48.9783C2.11252 48.0877 2.03186 47.1866 2.02115 46.2835L2.0209 46.2709C2.01221 45.9801 2.00889 45.7 2.00546 45.4104C2.00385 45.2749 2.00221 45.1373 2 44.9956V12.6467C2.00225 12.5047 2.00389 12.3656 2.00552 12.228C2.00893 11.9397 2.01225 11.6584 2.02089 11.3731L2.02115 11.3602C2.03186 10.457 2.1125 9.55604 2.26239 8.66529C2.4051 7.80798 2.67801 6.97629 3.07131 6.20127C3.46177 5.42821 3.97485 4.72189 4.58964 4.11187L4.59164 4.10988C5.20438 3.49698 5.90919 2.98367 6.68052 2.58853C7.45476 2.19605 8.28379 1.9226 9.13961 1.77742C10.0316 1.62975 10.9336 1.55024 11.8376 1.5396L11.8405 1.53956C11.9314 1.53813 12.0216 1.53664 12.1114 1.53516L162.259 2.58046Z" stroke="white"/>
<path d="M35.6109 28.9407C35.6258 27.7721 35.9362 26.6265 36.513 25.6101C37.09 24.5937 37.9144 23.7399 38.91 23.1278C38.2776 22.2246 37.4432 21.4812 36.4733 20.9569C35.5033 20.4325 34.4245 20.1416 33.3224 20.1071C30.9714 19.8603 28.6923 21.5139 27.4944 21.5139C26.2731 21.5139 24.4286 20.1316 22.4425 20.1724C21.1577 20.214 19.9055 20.5875 18.8082 21.2568C17.7107 21.9262 16.8054 22.8682 16.1803 23.9914C13.4727 28.6792 15.4923 35.5687 18.0859 39.358C19.3836 41.2134 20.9002 43.2861 22.8847 43.2126C24.8265 43.1321 25.5519 41.9743 27.8959 41.9743C30.2181 41.9743 30.8986 43.2126 32.9233 43.1659C35.007 43.1321 36.3198 41.3022 37.572 39.4291C38.5044 38.1069 39.2217 36.6458 39.6977 35.0996C38.4872 34.5875 37.4541 33.7305 36.7274 32.6353C36.0005 31.5401 35.6123 30.2552 35.6109 28.9407Z" fill="white"/>
<path d="M31.7874 17.6154C32.9237 16.2515 33.4834 14.4984 33.3479 12.7285C31.612 12.9108 30.0087 13.7404 28.8572 15.052C28.2941 15.6928 27.8629 16.4381 27.5883 17.2456C27.3134 18.053 27.2006 18.9067 27.256 19.7579C28.1242 19.7669 28.9831 19.5787 29.7681 19.2076C30.5529 18.8365 31.2434 18.292 31.7874 17.6154Z" fill="white"/>
<path d="M60.1578 38.5144H53.531L51.9395 43.2133H49.1328L55.4096 25.8281H58.3258L64.6025 43.2133H61.7478L60.1578 38.5144ZM54.2173 36.3459H59.4701L56.8807 28.7198H56.8082L54.2173 36.3459Z" fill="white"/>
<path d="M78.1585 36.8775C78.1585 40.8164 76.0502 43.347 72.8689 43.347C72.0629 43.3891 71.2614 43.2035 70.5561 42.8114C69.8508 42.4192 69.2702 41.8363 68.8807 41.1294H68.8205V47.4076H66.2188V30.5392H68.7372V32.6475H68.7851C69.1923 31.944 69.7827 31.3641 70.4935 30.9696C71.2041 30.5749 72.0086 30.3803 72.821 30.4067C76.0379 30.4067 78.1585 32.9496 78.1585 36.8775ZM75.4842 36.8775C75.4842 34.3113 74.158 32.6243 72.1346 32.6243C70.1467 32.6243 68.8096 34.3468 68.8096 36.8775C68.8096 39.4315 70.1467 41.1417 72.1346 41.1417C74.1582 41.1417 75.4842 39.467 75.4842 36.8775Z" fill="white"/>
<path d="M92.1115 36.8774C92.1115 40.8163 90.0032 43.347 86.8219 43.347C86.0159 43.3891 85.2144 43.2035 84.5091 42.8113C83.8038 42.4192 83.2232 41.8362 82.8338 41.1294H82.7736V47.4075H80.1719V30.5392H82.6902V32.6475H82.7381C83.1453 31.944 83.7357 31.3641 84.4465 30.9696C85.1571 30.5749 85.9616 30.3805 86.774 30.4066C89.9911 30.4066 92.1115 32.9496 92.1115 36.8774ZM89.4374 36.8774C89.4374 34.3112 88.1111 32.6242 86.0877 32.6242C84.0997 32.6242 82.7627 34.3468 82.7627 36.8774C82.7627 39.4314 84.0997 41.1417 86.0877 41.1417C88.1111 41.1417 89.4374 39.467 89.4374 36.8774Z" fill="white"/>
<path d="M101.331 38.3701C101.524 40.0942 103.199 41.2261 105.488 41.2261C107.68 41.2261 109.258 40.0942 109.258 38.5396C109.258 37.1901 108.307 36.3822 106.054 35.8285L103.8 35.2857C100.608 34.5146 99.1261 33.0216 99.1261 30.5989C99.1261 27.5993 101.74 25.5391 105.452 25.5391C109.126 25.5391 111.644 27.5993 111.729 30.5989H109.102C108.945 28.8641 107.511 27.8167 105.415 27.8167C103.319 27.8167 101.885 28.8764 101.885 30.4185C101.885 31.6475 102.801 32.3708 105.042 32.9245L106.957 33.3949C110.524 34.2384 112.006 35.6713 112.006 38.2141C112.006 41.4667 109.415 43.5039 105.295 43.5039C101.439 43.5039 98.8361 41.5146 98.668 38.3701H101.331Z" fill="white"/>
<path d="M117.621 27.5391V30.5387H120.031V32.5991H117.621V39.5868C117.621 40.6723 118.104 41.1781 119.163 41.1781C119.449 41.1731 119.735 41.1531 120.019 41.1179V43.166C119.543 43.255 119.059 43.2954 118.574 43.2863C116.008 43.2863 115.007 42.3225 115.007 39.8642V32.5991H113.164V30.5387H115.007V27.5391H117.621Z" fill="white"/>
<path d="M121.426 36.8769C121.426 32.8888 123.775 30.3828 127.437 30.3828C131.112 30.3828 133.45 32.8888 133.45 36.8769C133.45 40.876 131.125 43.371 127.437 43.371C123.751 43.371 121.426 40.876 121.426 36.8769ZM130.799 36.8769C130.799 34.1411 129.545 32.5265 127.437 32.5265C125.329 32.5265 124.077 34.1534 124.077 36.8769C124.077 39.6237 125.329 41.226 127.437 41.226C129.545 41.226 130.799 39.6237 130.799 36.8769Z" fill="white"/>
<path d="M135.598 30.5391H138.079V32.6965H138.139C138.307 32.0227 138.702 31.4273 139.257 31.0102C139.812 30.5931 140.495 30.3799 141.188 30.4065C141.487 30.4054 141.787 30.438 142.08 30.5035V32.9372C141.702 32.8215 141.307 32.7683 140.911 32.7799C140.533 32.7645 140.156 32.8312 139.806 32.9752C139.456 33.1193 139.142 33.3373 138.884 33.6143C138.627 33.8914 138.432 34.221 138.314 34.5802C138.196 34.9396 138.157 35.3202 138.199 35.6961V43.2143H135.598V30.5391Z" fill="white"/>
<path d="M154.074 39.4909C153.724 41.792 151.484 43.371 148.617 43.371C144.93 43.371 142.641 40.9006 142.641 36.9371C142.641 32.9613 144.942 30.3828 148.508 30.3828C152.015 30.3828 154.22 32.7918 154.22 36.6349V37.5263H145.267V37.6835C145.226 38.15 145.285 38.62 145.439 39.0621C145.593 39.5042 145.84 39.9086 146.162 40.2482C146.485 40.5877 146.876 40.8548 147.31 41.0316C147.744 41.2085 148.21 41.2911 148.677 41.2738C149.292 41.3314 149.909 41.189 150.437 40.8677C150.964 40.5465 151.374 40.0637 151.605 39.4909H154.074ZM145.28 35.708H151.617C151.64 35.2886 151.577 34.8688 151.43 34.4752C151.283 34.0813 151.057 33.7222 150.765 33.4201C150.474 33.1181 150.122 32.8796 149.733 32.7197C149.345 32.5598 148.928 32.482 148.508 32.4909C148.084 32.4884 147.664 32.5699 147.272 32.7305C146.88 32.8911 146.524 33.1278 146.223 33.4268C145.924 33.726 145.686 34.0815 145.523 34.4731C145.362 34.8646 145.278 35.2842 145.28 35.708Z" fill="white"/>
<path d="M53.8924 12.7439C54.4379 12.7047 54.9851 12.7871 55.495 12.9851C56.0047 13.1831 56.4642 13.4918 56.8401 13.8889C57.2162 14.286 57.4994 14.7615 57.6693 15.2813C57.8393 15.801 57.8918 16.3521 57.8231 16.8947C57.8231 19.5634 56.3806 21.0974 53.8924 21.0974H50.875V12.7439H53.8924ZM52.1725 19.916H53.7475C54.1373 19.9394 54.5273 19.8754 54.8892 19.729C55.2511 19.5826 55.5759 19.3572 55.8398 19.0695C56.1037 18.7816 56.3001 18.4386 56.4147 18.0654C56.5293 17.6921 56.5593 17.2979 56.5023 16.9116C56.5551 16.5269 56.5222 16.1352 56.4058 15.7646C56.2894 15.3942 56.0925 15.054 55.8293 14.7684C55.566 14.4829 55.2427 14.2592 54.8829 14.1133C54.523 13.9673 54.1352 13.9028 53.7475 13.9243H52.1725V19.916Z" fill="white"/>
<path d="M59.2875 17.9409C59.2479 17.5265 59.2952 17.1086 59.4266 16.7136C59.558 16.3187 59.7704 15.9557 60.0504 15.6477C60.3303 15.3397 60.6714 15.0937 61.0521 14.9253C61.4326 14.7569 61.8442 14.6699 62.2604 14.6699C62.6767 14.6699 63.0883 14.7569 63.4688 14.9253C63.8494 15.0937 64.1906 15.3397 64.4705 15.6477C64.7505 15.9557 64.9628 16.3187 65.0943 16.7136C65.2256 17.1086 65.2729 17.5265 65.2333 17.9409C65.2738 18.3556 65.2269 18.7742 65.0959 19.1697C64.9648 19.5652 64.7526 19.9289 64.4726 20.2374C64.1926 20.5461 63.8511 20.7927 63.4702 20.9614C63.0892 21.1302 62.6771 21.2173 62.2604 21.2173C61.8438 21.2173 61.4316 21.1302 61.0507 20.9614C60.6698 20.7927 60.3283 20.5461 60.0483 20.2374C59.7683 19.9289 59.556 19.5652 59.425 19.1697C59.294 18.7742 59.2471 18.3556 59.2875 17.9409ZM63.9537 17.9409C63.9537 16.5743 63.3398 15.7752 62.2625 15.7752C61.181 15.7752 60.5727 16.5743 60.5727 17.9409C60.5727 19.3183 61.181 20.1113 62.2625 20.1113C63.3398 20.1112 63.9537 19.3127 63.9537 17.9409Z" fill="white"/>
<path d="M73.1383 21.0972H71.8478L70.5448 16.4542H70.4464L69.1488 21.0972H67.8706L66.1328 14.793H67.3948L68.5242 19.6034H68.6171L69.9131 14.793H71.1067L72.4029 19.6034H72.5013L73.6251 14.793H74.8692L73.1383 21.0972Z" fill="white"/>
<path d="M76.332 14.7919H77.5297V15.7935H77.6227C77.7803 15.4337 78.0465 15.1323 78.3836 14.9309C78.7209 14.7296 79.1124 14.6385 79.5039 14.6703C79.8106 14.6472 80.1186 14.6935 80.4051 14.8056C80.6915 14.9178 80.9491 15.0929 81.1587 15.318C81.3683 15.5433 81.5244 15.8127 81.6156 16.1064C81.7069 16.4002 81.731 16.7108 81.6859 17.015V21.096H80.4419V17.3275C80.4419 16.3143 80.0016 15.8106 79.0815 15.8106C78.8732 15.8008 78.6653 15.8363 78.4721 15.9144C78.2787 15.9926 78.1047 16.1116 77.9616 16.2633C77.8187 16.4151 77.7102 16.596 77.6437 16.7935C77.5772 16.9912 77.5541 17.2008 77.5762 17.4081V21.0961H76.332V14.7919Z" fill="white"/>
<path d="M83.668 12.332H84.9122V21.0971H83.668V12.332Z" fill="white"/>
<path d="M86.639 17.941C86.5994 17.5266 86.6469 17.1086 86.7782 16.7136C86.9097 16.3188 87.1222 15.9557 87.402 15.6477C87.682 15.3397 88.0232 15.0937 88.4039 14.9253C88.7845 14.7569 89.1961 14.6699 89.6124 14.6699C90.0284 14.6699 90.44 14.7569 90.8207 14.9253C91.2014 15.0937 91.5425 15.3397 91.8225 15.6477C92.1024 15.9557 92.3149 16.3188 92.4464 16.7136C92.5777 17.1086 92.6252 17.5266 92.5855 17.941C92.6259 18.3557 92.5791 18.7743 92.4479 19.1698C92.3169 19.5653 92.1045 19.929 91.8245 20.2376C91.5445 20.5461 91.203 20.7928 90.8221 20.9615C90.441 21.1302 90.029 21.2174 89.6124 21.2174C89.1956 21.2174 88.7836 21.1302 88.4025 20.9615C88.0215 20.7928 87.6801 20.5461 87.4001 20.2376C87.1201 19.929 86.9077 19.5653 86.7767 19.1698C86.6455 18.7743 86.5987 18.3557 86.639 17.941ZM91.3052 17.941C91.3052 16.5745 90.6913 15.7754 89.614 15.7754C88.5325 15.7754 87.9242 16.5745 87.9242 17.941C87.9242 19.3185 88.5325 20.1114 89.614 20.1114C90.6913 20.1113 91.3052 19.3129 91.3052 17.941Z" fill="white"/>
<path d="M93.8984 19.3129C93.8984 18.1782 94.7433 17.524 96.2432 17.431L97.9507 17.3326V16.7884C97.9507 16.1226 97.5106 15.7467 96.6601 15.7467C95.9657 15.7467 95.4844 16.0016 95.3463 16.4474H94.1418C94.2689 15.3645 95.2875 14.6699 96.7176 14.6699C98.2981 14.6699 99.1895 15.4567 99.1895 16.7884V21.0958H97.9918V20.2099H97.8933C97.6936 20.5277 97.413 20.7867 97.0804 20.9605C96.7476 21.1344 96.3748 21.2169 95.9998 21.1997C95.7351 21.2271 95.4677 21.199 95.2146 21.1168C94.9615 21.0346 94.7285 20.9002 94.5305 20.7225C94.3326 20.5447 94.174 20.3275 94.0652 20.0847C93.9563 19.8419 93.8994 19.579 93.8984 19.3129ZM97.9507 18.7743V18.2472L96.4113 18.3456C95.5432 18.4037 95.1493 18.6991 95.1493 19.2548C95.1493 19.8222 95.6416 20.1523 96.3183 20.1523C96.5167 20.1725 96.7171 20.1525 96.9075 20.0935C97.0979 20.0346 97.2744 19.938 97.4267 19.8093C97.579 19.6808 97.7039 19.5229 97.7939 19.3451C97.884 19.1673 97.9373 18.9731 97.9507 18.7743Z" fill="white"/>
<path d="M100.824 17.9424C100.824 15.9503 101.848 14.6884 103.441 14.6884C103.835 14.6703 104.226 14.7647 104.568 14.9605C104.911 15.1564 105.19 15.4456 105.374 15.7944H105.467V12.332H106.711V21.0971H105.519V20.101H105.421C105.222 20.4475 104.933 20.7331 104.584 20.927C104.235 21.1209 103.84 21.2157 103.441 21.201C101.837 21.201 100.824 19.9391 100.824 17.9424ZM102.109 17.9424C102.109 19.2794 102.74 20.084 103.794 20.084C104.842 20.084 105.491 19.2678 105.491 17.9478C105.491 16.6339 104.836 15.8061 103.794 15.8061C102.747 15.8061 102.109 16.6162 102.109 17.9424Z" fill="white"/>
<path d="M111.858 17.9409C111.818 17.5265 111.866 17.1086 111.997 16.7136C112.128 16.3187 112.341 15.9557 112.621 15.6477C112.901 15.3397 113.242 15.0937 113.622 14.9253C114.003 14.7569 114.415 14.6699 114.831 14.6699C115.247 14.6699 115.659 14.7569 116.039 14.9253C116.42 15.0937 116.761 15.3397 117.041 15.6477C117.321 15.9557 117.533 16.3187 117.665 16.7136C117.796 17.1086 117.843 17.5265 117.804 17.9409C117.844 18.3556 117.797 18.7742 117.666 19.1697C117.535 19.5652 117.323 19.9289 117.043 20.2374C116.763 20.5461 116.421 20.7927 116.04 20.9614C115.66 21.1302 115.247 21.2173 114.831 21.2173C114.414 21.2173 114.002 21.1302 113.621 20.9614C113.24 20.7927 112.899 20.5461 112.619 20.2374C112.339 19.9289 112.126 19.5652 111.995 19.1697C111.864 18.7742 111.817 18.3556 111.858 17.9409ZM116.524 17.9409C116.524 16.5743 115.91 15.7752 114.833 15.7752C113.751 15.7752 113.143 16.5743 113.143 17.9409C113.143 19.3183 113.751 20.1113 114.833 20.1113C115.91 20.1112 116.524 19.3127 116.524 17.9409Z" fill="white"/>
<path d="M119.472 14.7919H120.67V15.7935H120.763C120.921 15.4337 121.187 15.1323 121.524 14.9309C121.861 14.7296 122.253 14.6385 122.644 14.6703C122.951 14.6472 123.259 14.6935 123.546 14.8056C123.832 14.9178 124.09 15.0929 124.299 15.318C124.509 15.5433 124.665 15.8127 124.756 16.1064C124.847 16.4002 124.871 16.7108 124.826 17.015V21.096H123.582V17.3275C123.582 16.3143 123.142 15.8106 122.222 15.8106C122.014 15.8008 121.806 15.8363 121.613 15.9144C121.419 15.9926 121.245 16.1116 121.102 16.2633C120.959 16.4151 120.851 16.596 120.784 16.7935C120.718 16.9912 120.695 17.2008 120.717 17.4081V21.0961H119.472V14.7919Z" fill="white"/>
<path d="M131.856 13.2227V14.8208H133.221V15.8689H131.856V19.1104C131.856 19.7708 132.128 20.0599 132.747 20.0599C132.906 20.0595 133.064 20.0498 133.221 20.0312V21.0676C132.998 21.1075 132.772 21.1288 132.545 21.1312C131.161 21.1312 130.61 20.6444 130.61 19.4289V15.8687H129.609V14.8208H130.61V13.2227H131.856Z" fill="white"/>
<path d="M134.922 12.332H136.155V15.8061H136.253C136.419 15.443 136.692 15.1397 137.036 14.9377C137.38 14.7357 137.778 14.6445 138.176 14.6767C138.481 14.6602 138.786 14.7112 139.069 14.826C139.352 14.9408 139.607 15.1168 139.814 15.3412C140.021 15.5657 140.176 15.8331 140.269 16.1246C140.361 16.416 140.388 16.7241 140.347 17.0269V21.0971H139.101V17.3339C139.101 16.3269 138.632 15.817 137.753 15.817C137.539 15.7994 137.324 15.8288 137.123 15.9031C136.922 15.9773 136.739 16.0948 136.588 16.247C136.437 16.3992 136.321 16.5827 136.248 16.7844C136.175 16.9862 136.147 17.2015 136.166 17.4153V21.097H134.922V12.332Z" fill="white"/>
<path d="M147.6 19.3936C147.432 19.9699 147.065 20.4683 146.565 20.8016C146.067 21.1351 145.466 21.2822 144.868 21.2175C144.454 21.2285 144.041 21.1489 143.659 20.9844C143.278 20.8198 142.936 20.5742 142.659 20.2647C142.382 19.955 142.176 19.5889 142.054 19.1915C141.933 18.7941 141.9 18.3751 141.956 17.9637C141.902 17.5508 141.935 17.1308 142.056 16.7324C142.178 16.3338 142.383 15.9659 142.658 15.6537C142.934 15.3413 143.274 15.0918 143.653 14.9222C144.034 14.7525 144.447 14.6665 144.863 14.67C146.617 14.67 147.675 15.8684 147.675 17.848V18.2822H143.223V18.3519C143.204 18.5833 143.233 18.8161 143.309 19.0355C143.384 19.255 143.506 19.4562 143.664 19.6263C143.823 19.7963 144.014 19.9314 144.227 20.0229C144.44 20.1145 144.671 20.1605 144.903 20.1579C145.2 20.1936 145.503 20.1401 145.769 20.0039C146.036 19.8678 146.257 19.6554 146.403 19.3936H147.6ZM143.223 17.3621H146.408C146.424 17.1504 146.394 16.9379 146.323 16.7381C146.252 16.5383 146.14 16.3556 145.994 16.2019C145.847 16.048 145.671 15.9265 145.475 15.845C145.279 15.7637 145.069 15.7241 144.856 15.729C144.642 15.7262 144.427 15.7666 144.229 15.8477C144.028 15.9289 143.848 16.049 143.695 16.2013C143.544 16.3535 143.424 16.5345 143.342 16.7339C143.261 16.9333 143.221 17.1469 143.223 17.3621Z" fill="white"/>
</g>
<defs>
<clipPath id="clip0_670_2995">
<rect width="169.4" height="56" fill="white" transform="translate(0 0.519531)"/>
</clipPath>
</defs>
</svg>
