<svg width="170" height="56" viewBox="0 0 170 56" fill="none" xmlns="http://www.w3.org/2000/svg">
<g clip-path="url(#clip0_670_2814)">
<path d="M162.259 2.06093C163.043 2.06638 163.829 2.23405 164.468 2.68765C165.556 3.45983 166.447 4.48484 167.063 5.68141C167.452 6.45663 167.722 7.2866 167.862 8.14293L167.864 8.14587C168.013 9.03701 168.097 9.93808 168.113 10.8416C168.118 11.2656 168.118 11.6917 168.118 12.1216V12.1367C168.13 12.6351 168.13 13.1361 168.13 13.6501V42.9502C168.13 43.4684 168.13 43.9668 168.118 44.4666V44.4815C168.118 44.9167 168.118 45.3333 168.113 45.7627C168.097 46.6662 168.013 47.5674 167.864 48.4585L167.862 48.4619C167.722 49.3183 167.453 50.1483 167.063 50.9235C166.667 51.6927 166.153 52.3948 165.54 53.0042L165.535 53.0082C164.926 53.6223 164.224 54.1347 163.454 54.5263C162.674 54.9195 161.841 55.195 160.981 55.344C160.091 55.491 159.191 55.5705 158.288 55.5817L158.281 55.582C157.859 55.5914 157.427 55.5967 157.007 55.5967H157.002C156.501 55.5995 155.992 55.5995 155.489 55.5995H14.6485C14.1349 55.5995 13.6295 55.5995 13.1198 55.5967H13.1159C12.6933 55.5967 12.2733 55.5914 11.8448 55.5819H11.8386C10.9346 55.57 10.0327 55.4904 9.14053 55.344C8.2841 55.1964 7.45467 54.9211 6.67999 54.5271C5.908 54.1357 5.20307 53.6227 4.59367 53.0081L4.58821 53.0026C3.97375 52.3964 3.46156 51.6946 3.07156 50.9246C2.67795 50.1494 2.40494 49.318 2.26265 48.4603L2.26239 48.4588C2.11252 47.5681 2.03186 46.6671 2.02115 45.7639L2.0209 45.7513C2.01221 45.4606 2.00889 45.1804 2.00546 44.8909C2.00385 44.7554 2.00221 44.6178 2 44.4761V12.1272C2.00225 11.9852 2.00389 11.8461 2.00552 11.7085C2.00893 11.4201 2.01225 11.1388 2.02089 10.8536L2.02115 10.8407C2.03186 9.9375 2.1125 9.03651 2.26239 8.14576C2.4051 7.28845 2.67801 6.45675 3.07131 5.68174C3.46177 4.90868 3.97485 4.20236 4.58964 3.59234L4.59164 3.59035C5.20438 2.97745 5.90919 2.46414 6.68052 2.069C7.45476 1.67652 8.28379 1.40307 9.13961 1.25789C10.0316 1.11021 10.9336 1.03071 11.8376 1.02007L11.8405 1.02003C11.9314 1.01859 12.0216 1.01711 12.1114 1.01562L162.259 2.06093Z" stroke="white"/>
<path d="M35.6109 28.4212C35.6258 27.2526 35.9362 26.107 36.513 25.0906C37.09 24.0742 37.9144 23.2203 38.91 22.6083C38.2776 21.7051 37.4432 20.9617 36.4733 20.4374C35.5033 19.913 34.4245 19.6221 33.3224 19.5876C30.9714 19.3408 28.6923 20.9943 27.4944 20.9943C26.2731 20.9943 24.4286 19.6121 22.4425 19.6529C21.1577 19.6944 19.9055 20.068 18.8082 20.7373C17.7107 21.4066 16.8054 22.3487 16.1803 23.4719C13.4727 28.1597 15.4923 35.0492 18.0859 38.8385C19.3836 40.6939 20.9002 42.7666 22.8847 42.6931C24.8265 42.6126 25.5519 41.4548 27.8959 41.4548C30.2181 41.4548 30.8986 42.6931 32.9233 42.6463C35.007 42.6126 36.3198 40.7826 37.572 38.9096C38.5044 37.5874 39.2217 36.1262 39.6977 34.5801C38.4872 34.068 37.4541 33.211 36.7274 32.1158C36.0005 31.0206 35.6123 29.7357 35.6109 28.4212Z" fill="white"/>
<path d="M31.7874 17.0959C32.9237 15.732 33.4834 13.9789 33.3479 12.209C31.612 12.3913 30.0087 13.2209 28.8572 14.5325C28.2941 15.1732 27.8629 15.9186 27.5883 16.7261C27.3134 17.5335 27.2006 18.3872 27.256 19.2384C28.1242 19.2474 28.9831 19.0592 29.7681 18.6881C30.5529 18.3169 31.2434 17.7725 31.7874 17.0959Z" fill="white"/>
<path d="M60.1578 37.9948H53.531L51.9395 42.6938H49.1328L55.4096 25.3086H58.3258L64.6025 42.6938H61.7478L60.1578 37.9948ZM54.2173 35.8264H59.4701L56.8807 28.2003H56.8082L54.2173 35.8264Z" fill="white"/>
<path d="M78.1585 36.3579C78.1585 40.2968 76.0502 42.8275 72.8689 42.8275C72.0629 42.8696 71.2614 42.684 70.5561 42.2918C69.8508 41.8997 69.2702 41.3167 68.8807 40.6099H68.8205V46.888H66.2188V30.0197H68.7372V32.128H68.7851C69.1923 31.4245 69.7827 30.8446 70.4935 30.4501C71.2041 30.0554 72.0086 29.8608 72.821 29.8871C76.0379 29.8871 78.1585 32.4301 78.1585 36.3579ZM75.4842 36.3579C75.4842 33.7917 74.158 32.1047 72.1346 32.1047C70.1467 32.1047 68.8096 33.8273 68.8096 36.3579C68.8096 38.9119 70.1467 40.6222 72.1346 40.6222C74.1582 40.6222 75.4842 38.9475 75.4842 36.3579Z" fill="white"/>
<path d="M92.1115 36.3579C92.1115 40.2968 90.0032 42.8274 86.8219 42.8274C86.0159 42.8696 85.2144 42.6839 84.5091 42.2918C83.8038 41.8997 83.2232 41.3167 82.8338 40.6098H82.7736V46.888H80.1719V30.0197H82.6902V32.1279H82.7381C83.1453 31.4244 83.7357 30.8446 84.4465 30.45C85.1571 30.0554 85.9616 29.8609 86.774 29.8871C89.9911 29.8871 92.1115 32.4301 92.1115 36.3579ZM89.4374 36.3579C89.4374 33.7917 88.1111 32.1047 86.0877 32.1047C84.0997 32.1047 82.7627 33.8273 82.7627 36.3579C82.7627 38.9119 84.0997 40.6222 86.0877 40.6222C88.1111 40.6222 89.4374 38.9475 89.4374 36.3579Z" fill="white"/>
<path d="M101.331 37.8505C101.524 39.5746 103.199 40.7065 105.488 40.7065C107.68 40.7065 109.258 39.5746 109.258 38.0201C109.258 36.6706 108.307 35.8627 106.054 35.309L103.8 34.7662C100.608 33.9951 99.1261 32.5021 99.1261 30.0794C99.1261 27.0798 101.74 25.0195 105.452 25.0195C109.126 25.0195 111.644 27.0798 111.729 30.0794H109.102C108.945 28.3445 107.511 27.2972 105.415 27.2972C103.319 27.2972 101.885 28.3569 101.885 29.899C101.885 31.128 102.801 31.8513 105.042 32.405L106.957 32.8754C110.524 33.7189 112.006 35.1518 112.006 37.6946C112.006 40.9472 109.415 42.9843 105.295 42.9843C101.439 42.9843 98.8361 40.9951 98.668 37.8505H101.331Z" fill="white"/>
<path d="M117.621 27.0195V30.0192H120.031V32.0796H117.621V39.0672C117.621 40.1528 118.104 40.6586 119.163 40.6586C119.449 40.6536 119.735 40.6336 120.019 40.5984V42.6465C119.543 42.7355 119.059 42.7758 118.574 42.7667C116.008 42.7667 115.007 41.803 115.007 39.3447V32.0796H113.164V30.0192H115.007V27.0195H117.621Z" fill="white"/>
<path d="M121.426 36.3573C121.426 32.3693 123.775 29.8633 127.437 29.8633C131.112 29.8633 133.45 32.3693 133.45 36.3573C133.45 40.3564 131.125 42.8515 127.437 42.8515C123.751 42.8515 121.426 40.3564 121.426 36.3573ZM130.799 36.3573C130.799 33.6216 129.545 32.007 127.437 32.007C125.329 32.007 124.077 33.6339 124.077 36.3573C124.077 39.1041 125.329 40.7064 127.437 40.7064C129.545 40.7064 130.799 39.1041 130.799 36.3573Z" fill="white"/>
<path d="M135.598 30.0196H138.079V32.177H138.139C138.307 31.5031 138.702 30.9077 139.257 30.4907C139.812 30.0736 140.495 29.8604 141.188 29.887C141.487 29.8859 141.787 29.9185 142.08 29.984V32.4176C141.702 32.302 141.307 32.2488 140.911 32.2604C140.533 32.245 140.156 32.3116 139.806 32.4557C139.456 32.5998 139.142 32.8177 138.884 33.0948C138.627 33.3719 138.432 33.7014 138.314 34.0607C138.196 34.42 138.157 34.8007 138.199 35.1766V42.6947H135.598V30.0196Z" fill="white"/>
<path d="M154.074 38.9714C153.724 41.2724 151.484 42.8515 148.617 42.8515C144.93 42.8515 142.641 40.3811 142.641 36.4175C142.641 32.4418 144.942 29.8633 148.508 29.8633C152.015 29.8633 154.22 32.2723 154.22 36.1154V37.0068H145.267V37.164C145.226 37.6305 145.285 38.1005 145.439 38.5426C145.593 38.9847 145.84 39.389 146.162 39.7287C146.485 40.0682 146.876 40.3353 147.31 40.5121C147.744 40.6889 148.21 40.7715 148.677 40.7543C149.292 40.8118 149.909 40.6695 150.437 40.3482C150.964 40.027 151.374 39.5441 151.605 38.9714H154.074ZM145.28 35.1885H151.617C151.64 34.769 151.577 34.3493 151.43 33.9556C151.283 33.5618 151.057 33.2027 150.765 32.9006C150.474 32.5986 150.122 32.36 149.733 32.2002C149.345 32.0403 148.928 31.9624 148.508 31.9714C148.084 31.9689 147.664 32.0504 147.272 32.2109C146.88 32.3715 146.524 32.6083 146.223 32.9073C145.924 33.2065 145.686 33.5619 145.523 33.9535C145.362 34.3451 145.278 34.7647 145.28 35.1885Z" fill="white"/>
<path d="M53.8924 12.2243C54.4379 12.1852 54.9851 12.2676 55.495 12.4656C56.0047 12.6636 56.4642 12.9723 56.8401 13.3693C57.2162 13.7664 57.4994 14.242 57.6693 14.7618C57.8393 15.2815 57.8918 15.8325 57.8231 16.3752C57.8231 19.0438 56.3806 20.5778 53.8924 20.5778H50.875V12.2243H53.8924ZM52.1725 19.3965H53.7475C54.1373 19.4199 54.5273 19.3559 54.8892 19.2095C55.2511 19.063 55.5759 18.8376 55.8398 18.5499C56.1037 18.2621 56.3001 17.9191 56.4147 17.5458C56.5293 17.1726 56.5593 16.7784 56.5023 16.3921C56.5551 16.0074 56.5222 15.6157 56.4058 15.2451C56.2894 14.8746 56.0925 14.5344 55.8293 14.2488C55.566 13.9634 55.2427 13.7397 54.8829 13.5937C54.523 13.4478 54.1352 13.3833 53.7475 13.4048H52.1725V19.3965Z" fill="white"/>
<path d="M59.2875 17.4233C59.2479 17.0089 59.2952 16.591 59.4266 16.1961C59.558 15.8011 59.7704 15.4381 60.0504 15.1301C60.3303 14.8221 60.6714 14.5761 61.0521 14.4077C61.4326 14.2393 61.8442 14.1523 62.2604 14.1523C62.6767 14.1523 63.0883 14.2393 63.4688 14.4077C63.8494 14.5761 64.1906 14.8221 64.4705 15.1301C64.7505 15.4381 64.9628 15.8011 65.0943 16.1961C65.2256 16.591 65.2729 17.0089 65.2333 17.4233C65.2738 17.838 65.2269 18.2566 65.0959 18.6521C64.9648 19.0476 64.7526 19.4113 64.4726 19.7199C64.1926 20.0286 63.8511 20.2751 63.4702 20.4438C63.0892 20.6126 62.6771 20.6997 62.2604 20.6997C61.8438 20.6997 61.4316 20.6126 61.0507 20.4438C60.6698 20.2751 60.3283 20.0286 60.0483 19.7199C59.7683 19.4113 59.556 19.0476 59.425 18.6521C59.294 18.2566 59.2471 17.838 59.2875 17.4233ZM63.9537 17.4233C63.9537 16.0568 63.3398 15.2576 62.2625 15.2576C61.181 15.2576 60.5727 16.0568 60.5727 17.4233C60.5727 18.8008 61.181 19.5937 62.2625 19.5937C63.3398 19.5936 63.9537 18.7952 63.9537 17.4233Z" fill="white"/>
<path d="M73.1383 20.5776H71.8478L70.5448 15.9347H70.4464L69.1488 20.5776H67.8706L66.1328 14.2734H67.3948L68.5242 19.0838H68.6171L69.9131 14.2734H71.1067L72.4029 19.0838H72.5013L73.6251 14.2734H74.8692L73.1383 20.5776Z" fill="white"/>
<path d="M76.332 14.2724H77.5297V15.2739H77.6227C77.7803 14.9141 78.0465 14.6127 78.3836 14.4114C78.7209 14.2101 79.1124 14.1189 79.5039 14.1507C79.8106 14.1276 80.1186 14.174 80.4051 14.2861C80.6915 14.3982 80.9491 14.5734 81.1587 14.7985C81.3683 15.0238 81.5244 15.2931 81.6156 15.5868C81.7069 15.8807 81.731 16.1912 81.6859 16.4954V20.5764H80.4419V16.8079C80.4419 15.7947 80.0016 15.291 79.0815 15.291C78.8732 15.2812 78.6653 15.3168 78.4721 15.3949C78.2787 15.473 78.1047 15.592 77.9616 15.7438C77.8187 15.8955 77.7102 16.0764 77.6437 16.274C77.5772 16.4716 77.5541 16.6812 77.5762 16.8886V20.5766H76.332V14.2724Z" fill="white"/>
<path d="M83.668 11.8125H84.9122V20.5776H83.668V11.8125Z" fill="white"/>
<path d="M86.639 17.4215C86.5994 17.0071 86.6469 16.5891 86.7782 16.1941C86.9097 15.7993 87.1222 15.4362 87.402 15.1282C87.682 14.8202 88.0232 14.5742 88.4039 14.4058C88.7845 14.2373 89.1961 14.1504 89.6124 14.1504C90.0284 14.1504 90.44 14.2373 90.8207 14.4058C91.2014 14.5742 91.5425 14.8202 91.8225 15.1282C92.1024 15.4362 92.3149 15.7993 92.4464 16.1941C92.5777 16.5891 92.6252 17.0071 92.5855 17.4215C92.6259 17.8362 92.5791 18.2548 92.4479 18.6503C92.3169 19.0458 92.1045 19.4095 91.8245 19.7181C91.5445 20.0266 91.203 20.2733 90.8221 20.442C90.441 20.6107 90.029 20.6979 89.6124 20.6979C89.1956 20.6979 88.7836 20.6107 88.4025 20.442C88.0215 20.2733 87.6801 20.0266 87.4001 19.7181C87.1201 19.4095 86.9077 19.0458 86.7767 18.6503C86.6455 18.2548 86.5987 17.8362 86.639 17.4215ZM91.3052 17.4215C91.3052 16.055 90.6913 15.2558 89.614 15.2558C88.5325 15.2558 87.9242 16.055 87.9242 17.4215C87.9242 18.799 88.5325 19.5919 89.614 19.5919C90.6913 19.5918 91.3052 18.7934 91.3052 17.4215Z" fill="white"/>
<path d="M93.8984 18.7934C93.8984 17.6587 94.7433 17.0044 96.2432 16.9115L97.9507 16.8131V16.2689C97.9507 15.603 97.5106 15.2271 96.6601 15.2271C95.9657 15.2271 95.4844 15.4821 95.3463 15.9278H94.1418C94.2689 14.8449 95.2875 14.1504 96.7176 14.1504C98.2981 14.1504 99.1895 14.9372 99.1895 16.2689V20.5763H97.9918V19.6903H97.8933C97.6936 20.0081 97.413 20.2671 97.0804 20.441C96.7476 20.6149 96.3748 20.6974 95.9998 20.6801C95.7351 20.7076 95.4677 20.6794 95.2146 20.5973C94.9615 20.5151 94.7285 20.3807 94.5305 20.203C94.3326 20.0252 94.174 19.8079 94.0652 19.5652C93.9563 19.3224 93.8994 19.0595 93.8984 18.7934ZM97.9507 18.2548V17.7277L96.4113 17.8261C95.5432 17.8842 95.1493 18.1796 95.1493 18.7353C95.1493 19.3027 95.6416 19.6328 96.3183 19.6328C96.5167 19.653 96.7171 19.6329 96.9075 19.574C97.0979 19.5151 97.2744 19.4185 97.4267 19.2898C97.579 19.1613 97.7039 19.0034 97.7939 18.8256C97.884 18.6478 97.9373 18.4536 97.9507 18.2548Z" fill="white"/>
<path d="M100.824 17.4228C100.824 15.4308 101.848 14.1688 103.441 14.1688C103.835 14.1508 104.226 14.2451 104.568 14.441C104.911 14.6368 105.19 14.9261 105.374 15.2748H105.467V11.8125H106.711V20.5776H105.519V19.5815H105.421C105.222 19.928 104.933 20.2136 104.584 20.4075C104.235 20.6014 103.84 20.6962 103.441 20.6815C101.837 20.6815 100.824 19.4195 100.824 17.4228ZM102.109 17.4228C102.109 18.7598 102.74 19.5644 103.794 19.5644C104.842 19.5644 105.491 18.7482 105.491 17.4283C105.491 16.1144 104.836 15.2866 103.794 15.2866C102.747 15.2866 102.109 16.0966 102.109 17.4228Z" fill="white"/>
<path d="M111.858 17.4233C111.818 17.0089 111.866 16.591 111.997 16.1961C112.128 15.8011 112.341 15.4381 112.621 15.1301C112.901 14.8221 113.242 14.5761 113.622 14.4077C114.003 14.2393 114.415 14.1523 114.831 14.1523C115.247 14.1523 115.659 14.2393 116.039 14.4077C116.42 14.5761 116.761 14.8221 117.041 15.1301C117.321 15.4381 117.533 15.8011 117.665 16.1961C117.796 16.591 117.843 17.0089 117.804 17.4233C117.844 17.838 117.797 18.2566 117.666 18.6521C117.535 19.0476 117.323 19.4113 117.043 19.7199C116.763 20.0286 116.421 20.2751 116.04 20.4438C115.66 20.6126 115.247 20.6997 114.831 20.6997C114.414 20.6997 114.002 20.6126 113.621 20.4438C113.24 20.2751 112.899 20.0286 112.619 19.7199C112.339 19.4113 112.126 19.0476 111.995 18.6521C111.864 18.2566 111.817 17.838 111.858 17.4233ZM116.524 17.4233C116.524 16.0568 115.91 15.2576 114.833 15.2576C113.751 15.2576 113.143 16.0568 113.143 17.4233C113.143 18.8008 113.751 19.5937 114.833 19.5937C115.91 19.5936 116.524 18.7952 116.524 17.4233Z" fill="white"/>
<path d="M119.473 14.2724H120.67V15.2739H120.763C120.921 14.9141 121.187 14.6127 121.524 14.4114C121.861 14.2101 122.253 14.1189 122.644 14.1507C122.951 14.1276 123.259 14.174 123.546 14.2861C123.832 14.3982 124.09 14.5734 124.299 14.7985C124.509 15.0238 124.665 15.2931 124.756 15.5868C124.848 15.8807 124.871 16.1912 124.827 16.4954V20.5764H123.582V16.8079C123.582 15.7947 123.142 15.291 122.222 15.291C122.014 15.2812 121.806 15.3168 121.613 15.3949C121.419 15.473 121.245 15.592 121.102 15.7438C120.959 15.8955 120.851 16.0764 120.784 16.274C120.718 16.4716 120.695 16.6812 120.717 16.8886V20.5766H119.473V14.2724Z" fill="white"/>
<path d="M131.856 12.7031V14.3013H133.221V15.3493H131.856V18.5909C131.856 19.2513 132.128 19.5404 132.747 19.5404C132.906 19.54 133.064 19.5303 133.221 19.5117V20.5481C132.998 20.588 132.772 20.6093 132.545 20.6117C131.161 20.6117 130.61 20.1249 130.61 18.9094V15.3492H129.609V14.3013H130.61V12.7031H131.856Z" fill="white"/>
<path d="M134.922 11.8125H136.155V15.2866H136.253C136.419 14.9234 136.692 14.6202 137.036 14.4182C137.38 14.2161 137.778 14.125 138.176 14.1572C138.481 14.1407 138.786 14.1916 139.069 14.3064C139.352 14.4212 139.607 14.5972 139.814 14.8216C140.021 15.0462 140.176 15.3136 140.269 15.6051C140.361 15.8964 140.388 16.2046 140.347 16.5074V20.5776H139.101V16.8144C139.101 15.8074 138.632 15.2975 137.753 15.2975C137.54 15.2799 137.324 15.3093 137.123 15.3836C136.922 15.4578 136.739 15.5753 136.588 15.7274C136.437 15.8796 136.321 16.0632 136.248 16.2649C136.175 16.4666 136.147 16.682 136.166 16.8957V20.5775H134.922V11.8125Z" fill="white"/>
<path d="M147.6 18.8741C147.432 19.4503 147.065 19.9487 146.565 20.2821C146.067 20.6156 145.466 20.7627 144.868 20.698C144.454 20.7089 144.041 20.6294 143.659 20.4649C143.278 20.3003 142.936 20.0547 142.659 19.7452C142.382 19.4355 142.176 19.0694 142.054 18.6719C141.933 18.2746 141.9 17.8556 141.956 17.4441C141.902 17.0313 141.935 16.6113 142.056 16.2128C142.178 15.8143 142.383 15.4463 142.658 15.1341C142.934 14.8218 143.274 14.5723 143.653 14.4026C144.034 14.233 144.447 14.147 144.863 14.1505C146.617 14.1505 147.675 15.3489 147.675 17.3285V17.7626H143.223V17.8324C143.204 18.0638 143.233 18.2966 143.309 18.516C143.384 18.7355 143.506 18.9367 143.664 19.1068C143.823 19.2767 144.014 19.4118 144.227 19.5034C144.44 19.595 144.671 19.641 144.903 19.6384C145.2 19.6741 145.503 19.6206 145.769 19.4844C146.036 19.3483 146.257 19.1359 146.403 18.8741H147.6ZM143.223 16.8426H146.408C146.424 16.6309 146.394 16.4184 146.323 16.2186C146.252 16.0188 146.14 15.8361 145.994 15.6824C145.847 15.5285 145.671 15.407 145.475 15.3255C145.279 15.2442 145.069 15.2046 144.856 15.2095C144.642 15.2067 144.427 15.2471 144.229 15.3282C144.028 15.4094 143.848 15.5295 143.695 15.6818C143.544 15.834 143.424 16.015 143.342 16.2144C143.261 16.4137 143.221 16.6274 143.223 16.8426Z" fill="white"/>
</g>
<defs>
<clipPath id="clip0_670_2814">
<rect width="169.4" height="56" fill="white"/>
</clipPath>
</defs>
</svg>
