<svg width="33" height="33" viewBox="0 0 33 33" fill="none" xmlns="http://www.w3.org/2000/svg">
<path fill-rule="evenodd" clip-rule="evenodd" d="M10.8327 10.276C10.8327 9.53188 10.9793 8.79501 11.264 8.1075C11.5488 7.41999 11.9662 6.7953 12.4924 6.2691C13.0186 5.7429 13.6433 5.3255 14.3308 5.04072C15.0183 4.75595 15.7552 4.60938 16.4993 4.60938C17.2435 4.60937 17.9804 4.75595 18.6679 5.04072C19.3554 5.3255 19.9801 5.7429 20.5063 6.2691C21.0325 6.7953 21.4499 7.41999 21.7347 8.1075C22.0194 8.79501 22.166 9.53188 22.166 10.276C22.166 11.7789 21.569 13.2203 20.5063 14.283C19.4436 15.3457 18.0022 15.9427 16.4993 15.9427C14.9965 15.9427 13.5551 15.3457 12.4924 14.283C11.4297 13.2203 10.8327 11.7789 10.8327 10.276ZM16.4993 6.60937C15.5269 6.60937 14.5943 6.99568 13.9066 7.68332C13.219 8.37095 12.8327 9.30358 12.8327 10.276C12.8327 11.2485 13.219 12.1811 13.9066 12.8688C14.5943 13.5564 15.5269 13.9427 16.4993 13.9427C17.4718 13.9427 18.4044 13.5564 19.0921 12.8688C19.7797 12.1811 20.166 11.2485 20.166 10.276C20.166 9.30358 19.7797 8.37095 19.0921 7.68332C18.4044 6.99568 17.4718 6.60937 16.4993 6.60937ZM11.166 19.9427C10.3704 19.9427 9.6073 20.2588 9.0447 20.8214C8.48209 21.384 8.16602 22.1471 8.16602 22.9427V24.5267C8.16602 24.5507 8.18335 24.572 8.20735 24.576C13.6993 25.472 19.3007 25.472 24.7913 24.576C24.8027 24.5734 24.8128 24.5672 24.8203 24.5583C24.8278 24.5494 24.8321 24.5383 24.8327 24.5267V22.9427C24.8327 22.1471 24.5166 21.384 23.954 20.8214C23.3914 20.2588 22.6283 19.9427 21.8327 19.9427H21.3793C21.3437 19.9433 21.3083 19.9487 21.274 19.9587L20.1207 20.336C17.7676 21.1044 15.2311 21.1044 12.878 20.336L11.7233 19.9587C11.69 19.9489 11.6555 19.9436 11.6207 19.9427H11.166ZM6.16602 22.9427C6.16602 21.6166 6.6928 20.3449 7.63048 19.4072C8.56816 18.4695 9.83993 17.9427 11.166 17.9427H11.6193C11.8682 17.9436 12.11 17.9818 12.3447 18.0574L13.4993 18.4347C15.4487 19.0711 17.55 19.0711 19.4993 18.4347L20.654 18.0574C20.8873 17.9814 21.1327 17.9427 21.378 17.9427H21.8327C23.1588 17.9427 24.4305 18.4695 25.3682 19.4072C26.3059 20.3449 26.8327 21.6166 26.8327 22.9427V24.5267C26.8327 25.532 26.1047 26.388 25.1127 26.5494C19.4082 27.4805 13.5905 27.4805 7.88602 26.5494C7.40626 26.4704 6.97008 26.2238 6.65511 25.8534C6.34014 25.4831 6.16683 25.0129 6.16602 24.5267V22.9427Z" fill="#A55FEF"/>
</svg>
