<svg width="24" height="24" viewBox="0 0 24 24" fill="none" xmlns="http://www.w3.org/2000/svg">
<path d="M18.75 7.49995H18.705C18.5142 5.85552 17.7257 4.33856 16.4894 3.2375C15.2532 2.13644 13.6555 1.52808 12 1.52808C10.3445 1.52808 8.74678 2.13644 7.51056 3.2375C6.27433 4.33856 5.48584 5.85552 5.295 7.49995H5.25C4.25544 7.49995 3.30161 7.89504 2.59835 8.5983C1.89509 9.30157 1.5 10.2554 1.5 11.25C1.5 12.2445 1.89509 13.1983 2.59835 13.9016C3.30161 14.6049 4.25544 15 5.25 15H6.75V8.24995C6.75 6.85757 7.30312 5.52221 8.28769 4.53764C9.27226 3.55308 10.6076 2.99995 12 2.99995C13.3924 2.99995 14.7277 3.55308 15.7123 4.53764C16.6969 5.52221 17.25 6.85757 17.25 8.24995V15.75C17.2495 16.4371 17.0131 17.1033 16.5803 17.6371C16.1476 18.1708 15.5447 18.5399 14.8725 18.6825C14.6723 17.9803 14.2229 17.3752 13.6085 16.9807C12.9941 16.5862 12.2569 16.4292 11.5351 16.5394C10.8133 16.6495 10.1564 17.019 9.68758 17.5788C9.21875 18.1386 8.97017 18.8501 8.98842 19.58C9.00667 20.31 9.29049 21.0082 9.7867 21.5438C10.2829 22.0795 10.9574 22.4157 11.6838 22.4896C12.4103 22.5635 13.1387 22.37 13.7326 21.9452C14.3265 21.5205 14.7451 20.8938 14.91 20.1825C15.9742 20.0247 16.9467 19.4908 17.6512 18.6776C18.3557 17.8645 18.7455 16.8258 18.75 15.75V15C19.7446 15 20.6984 14.6049 21.4016 13.9016C22.1049 13.1983 22.5 12.2445 22.5 11.25C22.5 10.2554 22.1049 9.30157 21.4016 8.5983C20.6984 7.89504 19.7446 7.49995 18.75 7.49995ZM3 11.25C3 10.6532 3.23705 10.0809 3.65901 9.65896C4.08097 9.23701 4.65326 8.99995 5.25 8.99995V13.5C4.65326 13.5 4.08097 13.2629 3.65901 12.8409C3.23705 12.419 3 11.8467 3 11.25ZM12 21C11.7033 21 11.4133 20.912 11.1666 20.7472C10.92 20.5823 10.7277 20.3481 10.6142 20.074C10.5006 19.7999 10.4709 19.4983 10.5288 19.2073C10.5867 18.9163 10.7296 18.6491 10.9393 18.4393C11.1491 18.2295 11.4164 18.0867 11.7074 18.0288C11.9983 17.9709 12.2999 18.0006 12.574 18.1141C12.8481 18.2277 13.0824 18.4199 13.2472 18.6666C13.412 18.9133 13.5 19.2033 13.5 19.5C13.5 19.8978 13.342 20.2793 13.0607 20.5606C12.7794 20.8419 12.3978 21 12 21ZM18.75 13.5V8.99995C19.3467 8.99995 19.919 9.23701 20.341 9.65896C20.7629 10.0809 21 10.6532 21 11.25C21 11.8467 20.7629 12.419 20.341 12.8409C19.919 13.2629 19.3467 13.5 18.75 13.5Z" fill="black"/>
</svg>
