<svg width="24" height="24" viewBox="0 0 24 24" fill="none" xmlns="http://www.w3.org/2000/svg">
<path fill-rule="evenodd" clip-rule="evenodd" d="M18 3.75H12C11.4033 3.75 10.831 3.98705 10.409 4.40901C9.98705 4.83097 9.75 5.40326 9.75 6V7.5H12C13.1935 7.5 14.3381 7.97411 15.182 8.81802C16.0259 9.66193 16.5 10.8065 16.5 12V14.25H18C18.5967 14.25 19.169 14.0129 19.591 13.591C20.0129 13.169 20.25 12.5967 20.25 12V6C20.25 5.40326 20.0129 4.83097 19.591 4.40901C19.169 3.98705 18.5967 3.75 18 3.75ZM16.5 16.5H18C19.1935 16.5 20.3381 16.0259 21.182 15.182C22.0259 14.3381 22.5 13.1935 22.5 12V6C22.5 4.80653 22.0259 3.66193 21.182 2.81802C20.3381 1.97411 19.1935 1.5 18 1.5H12C10.8065 1.5 9.66193 1.97411 8.81802 2.81802C7.97411 3.66193 7.5 4.80653 7.5 6V7.5H6C4.80653 7.5 3.66193 7.97411 2.81802 8.81802C1.97411 9.66193 1.5 10.8065 1.5 12V18C1.5 19.1935 1.97411 20.3381 2.81802 21.182C3.66193 22.0259 4.80653 22.5 6 22.5H12C13.1935 22.5 14.3381 22.0259 15.182 21.182C16.0259 20.3381 16.5 19.1935 16.5 18V16.5ZM6 9.75H12C12.5967 9.75 13.169 9.98705 13.591 10.409C14.0129 10.831 14.25 11.4033 14.25 12V18C14.25 18.5967 14.0129 19.169 13.591 19.591C13.169 20.0129 12.5967 20.25 12 20.25H6C5.40326 20.25 4.83097 20.0129 4.40901 19.591C3.98705 19.169 3.75 18.5967 3.75 18V12C3.75 11.4033 3.98705 10.831 4.40901 10.409C4.83097 9.98705 5.40326 9.75 6 9.75Z" fill="#3AAFFF"/>
</svg>
