<svg width="24" height="24" viewBox="0 0 24 24" fill="none" xmlns="http://www.w3.org/2000/svg">
<path d="M17.1405 4.50619C15.123 4.56169 13.5592 5.10919 12.0367 5.63869C10.4085 6.20419 8.87175 6.73744 6.7425 6.75919C5.31975 6.78169 3.89475 6.53569 2.4945 6.05119L1.5 5.70769V18.5192L1.9995 18.6969C3.30375 19.1582 4.63725 19.4244 5.96475 19.4874C6.1755 19.4972 6.38175 19.5024 6.58425 19.5024C8.844 19.5024 10.5743 18.9024 12.252 18.3234C14.0205 17.7114 15.6885 17.1332 17.9647 17.2404C19.1713 17.3024 20.3622 17.541 21.4995 17.9484L22.5 18.3024V5.48569L22.0065 5.30569C20.7303 4.84091 19.3906 4.57383 18.0338 4.51369C17.7362 4.50048 17.4382 4.49797 17.1405 4.50619ZM17.181 5.99569C17.436 5.98819 17.697 5.98819 17.9678 5.99869C18.2483 6.01069 18.5287 6.03619 18.8085 6.06919C18.9226 6.53977 19.2147 6.94781 19.6234 7.20753C20.032 7.46725 20.5255 7.55844 21 7.46194V14.2884C20.7543 14.2384 20.5011 14.2383 20.2553 14.2881C20.0096 14.3379 19.7764 14.4365 19.5695 14.5782C19.3626 14.7198 19.1864 14.9016 19.0511 15.1128C18.9159 15.3239 18.8244 15.56 18.7822 15.8072C18.5338 15.7816 18.2847 15.7631 18.0353 15.7517C15.474 15.6392 13.5855 16.2834 11.76 16.9164C9.98925 17.5299 8.3115 18.1097 6.03675 18.0017C5.75344 17.9869 5.47076 17.9619 5.18925 17.9267C5.07417 17.4574 4.78202 17.0508 4.37395 16.7921C3.96589 16.5333 3.47355 16.4424 3 16.5384V9.71194C3.24716 9.76224 3.50194 9.76201 3.74901 9.71127C3.99608 9.66053 4.23033 9.56032 4.43766 9.41668C4.64499 9.27304 4.82112 9.08894 4.95544 8.87545C5.08976 8.66197 5.1795 8.42351 5.21925 8.17444C5.733 8.22769 6.24675 8.25844 6.759 8.25019C9.13275 8.22619 10.8585 7.62544 12.5287 7.04494C13.9995 6.53269 15.4013 6.05119 17.181 5.99569ZM12 8.25019C10.3455 8.25019 9 9.93244 9 12.0002C9 14.0679 10.3455 15.7502 12 15.7502C13.6545 15.7502 15 14.0679 15 12.0002C15 9.93244 13.6545 8.25019 12 8.25019ZM12 9.75019C12.813 9.75019 13.5 10.7807 13.5 12.0002C13.5 13.2197 12.813 14.2502 12 14.2502C11.187 14.2502 10.5 13.2197 10.5 12.0002C10.5 10.7807 11.187 9.75019 12 9.75019ZM17.625 9.75019C17.3266 9.75019 17.0405 9.86871 16.8295 10.0797C16.6185 10.2907 16.5 10.5768 16.5 10.8752C16.5 11.1736 16.6185 11.4597 16.8295 11.6707C17.0405 11.8817 17.3266 12.0002 17.625 12.0002C17.9234 12.0002 18.2095 11.8817 18.4205 11.6707C18.6315 11.4597 18.75 11.1736 18.75 10.8752C18.75 10.5768 18.6315 10.2907 18.4205 10.0797C18.2095 9.86871 17.9234 9.75019 17.625 9.75019ZM6.375 12.0002C6.07663 12.0002 5.79048 12.1187 5.5795 12.3297C5.36853 12.5407 5.25 12.8268 5.25 13.1252C5.25 13.4236 5.36853 13.7097 5.5795 13.9207C5.79048 14.1317 6.07663 14.2502 6.375 14.2502C6.67337 14.2502 6.95952 14.1317 7.1705 13.9207C7.38147 13.7097 7.5 13.4236 7.5 13.1252C7.5 12.8268 7.38147 12.5407 7.1705 12.3297C6.95952 12.1187 6.67337 12.0002 6.375 12.0002Z" fill="#A55FEF"/>
</svg>
