<svg width="24" height="24" viewBox="0 0 24 24" fill="none" xmlns="http://www.w3.org/2000/svg">
<g clip-path="url(#clip0_355_1934)">
<path d="M17.1431 6.00003V2.57146C17.1431 2.11681 16.9625 1.68077 16.641 1.35928C16.3195 1.03779 15.8835 0.857178 15.4288 0.857178H8.57171C8.11705 0.857178 7.68102 1.03779 7.35952 1.35928C7.03803 1.68077 6.85742 2.11681 6.85742 2.57146V6.00003M21.4288 6.00003H2.57171C2.11705 6.00003 1.68102 6.18065 1.35952 6.50214C1.03803 6.82363 0.857422 7.25966 0.857422 7.71432V21.4286C0.857422 21.8833 1.03803 22.3193 1.35952 22.6408C1.68102 22.9623 2.11705 23.1429 2.57171 23.1429H21.4288C21.8835 23.1429 22.3195 22.9623 22.641 22.6408C22.9625 22.3193 23.1431 21.8833 23.1431 21.4286V7.71432C23.1431 7.25966 22.9625 6.82363 22.641 6.50214C22.3195 6.18065 21.8835 6.00003 21.4288 6.00003Z" stroke="#A55FEF" stroke-width="2" stroke-linecap="round" stroke-linejoin="round"/>
<path d="M14.187 12.2864C14.0689 11.952 13.85 11.6625 13.5605 11.4577C13.271 11.2529 12.9251 11.143 12.5705 11.143H11.2453C10.8684 11.1441 10.5052 11.2841 10.2251 11.5363C9.94505 11.7886 9.76789 12.1353 9.72755 12.51C9.68721 12.8847 9.78653 13.2612 10.0065 13.5672C10.2264 13.8733 10.5516 14.0875 10.9196 14.1687L12.939 14.6093C13.354 14.6978 13.7215 14.937 13.9703 15.2808C14.2191 15.6246 14.3315 16.0484 14.2859 16.4703C14.2402 16.8922 14.0397 17.2821 13.7232 17.5647C13.4066 17.8473 12.9965 18.0025 12.5722 18.0001H11.4305C11.0758 18.0002 10.7299 17.8902 10.4404 17.6854C10.1509 17.4806 9.93198 17.1911 9.81388 16.8567M11.9996 11.143V9.42871M11.9996 19.7144V18.0001" stroke="#A55FEF" stroke-width="2" stroke-linecap="round" stroke-linejoin="round"/>
</g>
<defs>
<clipPath id="clip0_355_1934">
<rect width="24" height="24" fill="white"/>
</clipPath>
</defs>
</svg>
